<svg width="120" height="87" viewBox="0 0 120 87" fill="none" xmlns="http://www.w3.org/2000/svg">
<g filter="url(#filter0_ii)">
<rect x="17" y="8" width="98" height="50" rx="10" fill="#EEF7FB"/>
</g>
<circle cx="41" cy="33" r="9" fill="#FFB703"/>
<g filter="url(#filter1_dd)">
<path d="M23.4358 4.83466C26.7525 2.97817 30.4958 2 34.2967 2C57.191 2 65.0417 32.483 45.0642 43.6653C41.7475 45.5218 38.0042 46.5 34.2033 46.5C11.309 46.5 3.45832 16.017 23.4358 4.83466Z" fill="#EEF7FB"/>
</g>
<g filter="url(#filter2_d)">
<path d="M68.28 20H78.03V20.57H76.38V33.53C76.38 36.23 75.77 38.2 74.55 39.44C73.33 40.66 71.5 41.27 69.06 41.27C67.44 41.27 66.15 40.96 65.19 40.34C64.25 39.72 63.78 38.85 63.78 37.73C63.78 36.87 64.02 36.2 64.5 35.72C64.98 35.22 65.63 34.97 66.45 34.97C67.29 34.97 67.91 35.18 68.31 35.6C68.73 36.02 68.94 36.53 68.94 37.13C68.94 37.71 68.83 38.3 68.61 38.9H67.44C67.26 39.2 67.17 39.49 67.17 39.77C67.17 40.03 67.3 40.26 67.56 40.46C67.84 40.64 68.2 40.73 68.64 40.73C69.44 40.73 69.95 40.42 70.17 39.8C70.41 39.16 70.53 37.79 70.53 35.69V20.57H68.28V20ZM94.938 20H102.948V20.57H101.298V40.43H102.948V41H93.798V40.43H95.448V21.68H95.328L90.828 41H87.078L81.798 21.59H81.678V40.43H83.328V41H79.248V40.43H80.898V20.57H79.248V20H87.348L91.338 35.45L94.938 20Z" fill="#0E4B69"/>
</g>
<circle cx="34" cy="24" r="9" fill="#FFB703"/>
<defs>
<filter id="filter0_ii" x="7" y="-2" width="118" height="70" filterUnits="userSpaceOnUse" color-interpolation-filters="sRGB">
<feFlood flood-opacity="0" result="BackgroundImageFix"/>
<feBlend mode="normal" in="SourceGraphic" in2="BackgroundImageFix" result="shape"/>
<feColorMatrix in="SourceAlpha" type="matrix" values="0 0 0 0 0 0 0 0 0 0 0 0 0 0 0 0 0 0 127 0" result="hardAlpha"/>
<feOffset dx="-10" dy="-10"/>
<feGaussianBlur stdDeviation="7.5"/>
<feComposite in2="hardAlpha" operator="arithmetic" k2="-1" k3="1"/>
<feColorMatrix type="matrix" values="0 0 0 0 1 0 0 0 0 1 0 0 0 0 1 0 0 0 0.8 0"/>
<feBlend mode="lighten" in2="shape" result="effect1_innerShadow"/>
<feColorMatrix in="SourceAlpha" type="matrix" values="0 0 0 0 0 0 0 0 0 0 0 0 0 0 0 0 0 0 127 0" result="hardAlpha"/>
<feOffset dx="10" dy="10"/>
<feGaussianBlur stdDeviation="7.5"/>
<feComposite in2="hardAlpha" operator="arithmetic" k2="-1" k3="1"/>
<feColorMatrix type="matrix" values="0 0 0 0 0.858507 0 0 0 0 0.884348 0 0 0 0 0.895833 0 0 0 1 0"/>
<feBlend mode="normal" in2="effect1_innerShadow" result="effect2_innerShadow"/>
</filter>
<filter id="filter1_dd" x="-47.9998" y="-58" width="144.499" height="144.5" filterUnits="userSpaceOnUse" color-interpolation-filters="sRGB">
<feFlood flood-opacity="0" result="BackgroundImageFix"/>
<feColorMatrix in="SourceAlpha" type="matrix" values="0 0 0 0 0 0 0 0 0 0 0 0 0 0 0 0 0 0 127 0"/>
<feOffset dx="-10" dy="-10"/>
<feGaussianBlur stdDeviation="25"/>
<feColorMatrix type="matrix" values="0 0 0 0 0.487205 0 0 0 0 0.501762 0 0 0 0 0.554167 0 0 0 1 0"/>
<feBlend mode="lighten" in2="BackgroundImageFix" result="effect1_dropShadow"/>
<feColorMatrix in="SourceAlpha" type="matrix" values="0 0 0 0 0 0 0 0 0 0 0 0 0 0 0 0 0 0 127 0"/>
<feOffset dx="4" dy="4"/>
<feGaussianBlur stdDeviation="7.5"/>
<feColorMatrix type="matrix" values="0 0 0 0 0 0 0 0 0 0 0 0 0 0 0 0 0 0 0.25 0"/>
<feBlend mode="normal" in2="effect1_dropShadow" result="effect2_dropShadow"/>
<feBlend mode="normal" in="SourceGraphic" in2="effect2_dropShadow" result="shape"/>
</filter>
<filter id="filter2_d" x="59.78" y="20" width="47.168" height="29.27" filterUnits="userSpaceOnUse" color-interpolation-filters="sRGB">
<feFlood flood-opacity="0" result="BackgroundImageFix"/>
<feColorMatrix in="SourceAlpha" type="matrix" values="0 0 0 0 0 0 0 0 0 0 0 0 0 0 0 0 0 0 127 0"/>
<feOffset dy="4"/>
<feGaussianBlur stdDeviation="2"/>
<feColorMatrix type="matrix" values="0 0 0 0 0 0 0 0 0 0 0 0 0 0 0 0 0 0 0.25 0"/>
<feBlend mode="normal" in2="BackgroundImageFix" result="effect1_dropShadow"/>
<feBlend mode="normal" in="SourceGraphic" in2="effect1_dropShadow" result="shape"/>
</filter>
</defs>
</svg>
