<svg width="171" height="88" viewBox="0 0 171 88" fill="none" xmlns="http://www.w3.org/2000/svg">
<g filter="url(#filter0_ii)">
<rect x="69" y="8" width="99" height="50" rx="10" fill="#023047"/>
</g>
<rect x="69.5" y="8.5" width="98" height="49" rx="9.5" stroke="#023047" stroke-linecap="round"/>
<g filter="url(#filter1_dd)">
<path d="M74.4358 5.83466C77.7525 3.97817 81.4958 3 85.2967 3C108.191 3 116.042 33.483 96.0642 44.6653C92.7475 46.5218 89.0042 47.5 85.2033 47.5C62.309 47.5 54.4583 17.017 74.4358 5.83466Z" fill="#023047"/>
</g>
<g filter="url(#filter2_d)">
<path d="M121.28 22H131.03V22.57H129.38V35.53C129.38 38.23 128.77 40.2 127.55 41.44C126.33 42.66 124.5 43.27 122.06 43.27C120.44 43.27 119.15 42.96 118.19 42.34C117.25 41.72 116.78 40.85 116.78 39.73C116.78 38.87 117.02 38.2 117.5 37.72C117.98 37.22 118.63 36.97 119.45 36.97C120.29 36.97 120.91 37.18 121.31 37.6C121.73 38.02 121.94 38.53 121.94 39.13C121.94 39.71 121.83 40.3 121.61 40.9H120.44C120.26 41.2 120.17 41.49 120.17 41.77C120.17 42.03 120.3 42.26 120.56 42.46C120.84 42.64 121.2 42.73 121.64 42.73C122.44 42.73 122.95 42.42 123.17 41.8C123.41 41.16 123.53 39.79 123.53 37.69V22.57H121.28V22ZM147.938 22H155.948V22.57H154.298V42.43H155.948V43H146.798V42.43H148.448V23.68H148.328L143.828 43H140.078L134.798 23.59H134.678V42.43H136.328V43H132.248V42.43H133.898V22.57H132.248V22H140.348L144.338 37.45L147.938 22Z" fill="#EEF7FB"/>
<path d="M121.28 22V21H120.28V22H121.28ZM131.03 22H132.03V21H131.03V22ZM131.03 22.57V23.57H132.03V22.57H131.03ZM129.38 22.57V21.57H128.38V22.57H129.38ZM127.55 41.44L128.257 42.1471L128.263 42.1413L127.55 41.44ZM118.19 42.34L117.639 43.1748L117.647 43.18L118.19 42.34ZM117.5 37.72L118.207 38.4271L118.214 38.4199L118.221 38.4125L117.5 37.72ZM121.31 37.6L120.586 38.2897L120.594 38.2985L120.603 38.3071L121.31 37.6ZM121.61 40.9V41.9H122.308L122.549 41.2443L121.61 40.9ZM120.44 40.9V39.9H119.874L119.583 40.3855L120.44 40.9ZM120.56 42.46L119.95 43.2526L119.984 43.2784L120.019 43.3012L120.56 42.46ZM123.17 41.8L122.234 41.4489L122.231 41.4572L122.228 41.4656L123.17 41.8ZM123.53 22.57H124.53V21.57H123.53V22.57ZM121.28 22.57H120.28V23.57H121.28V22.57ZM121.28 23H131.03V21H121.28V23ZM130.03 22V22.57H132.03V22H130.03ZM131.03 21.57H129.38V23.57H131.03V21.57ZM128.38 22.57V35.53H130.38V22.57H128.38ZM128.38 35.53C128.38 38.1085 127.794 39.7666 126.837 40.7387L128.263 42.1413C129.746 40.6334 130.38 38.3515 130.38 35.53H128.38ZM126.843 40.7329C125.877 41.6992 124.346 42.27 122.06 42.27V44.27C124.654 44.27 126.783 43.6208 128.257 42.1471L126.843 40.7329ZM122.06 42.27C120.556 42.27 119.477 41.9805 118.733 41.5L117.647 43.18C118.823 43.9395 120.324 44.27 122.06 44.27V42.27ZM118.741 41.5052C118.079 41.0691 117.78 40.5117 117.78 39.73H115.78C115.78 41.1883 116.421 42.3709 117.639 43.1748L118.741 41.5052ZM117.78 39.73C117.78 39.0608 117.961 38.6728 118.207 38.4271L116.793 37.0129C116.079 37.7272 115.78 38.6792 115.78 39.73H117.78ZM118.221 38.4125C118.478 38.1447 118.848 37.97 119.45 37.97V35.97C118.412 35.97 117.482 36.2953 116.779 37.0275L118.221 38.4125ZM119.45 37.97C120.14 37.97 120.446 38.1425 120.586 38.2897L122.034 36.9103C121.374 36.2175 120.44 35.97 119.45 35.97V37.97ZM120.603 38.3071C120.833 38.5374 120.94 38.7922 120.94 39.13H122.94C122.94 38.2678 122.627 37.5026 122.017 36.8929L120.603 38.3071ZM120.94 39.13C120.94 39.5812 120.855 40.0548 120.671 40.5557L122.549 41.2443C122.805 40.5452 122.94 39.8388 122.94 39.13H120.94ZM121.61 39.9H120.44V41.9H121.61V39.9ZM119.583 40.3855C119.332 40.8025 119.17 41.2686 119.17 41.77H121.17C121.17 41.7114 121.188 41.5975 121.297 41.4145L119.583 40.3855ZM119.17 41.77C119.17 42.4201 119.515 42.9178 119.95 43.2526L121.17 41.6674C121.121 41.6299 121.123 41.6193 121.138 41.6454C121.146 41.6589 121.154 41.6785 121.161 41.7029C121.167 41.7275 121.17 41.7507 121.17 41.77H119.17ZM120.019 43.3012C120.505 43.6133 121.069 43.73 121.64 43.73V41.73C121.331 41.73 121.175 41.6667 121.101 41.6188L120.019 43.3012ZM121.64 43.73C122.163 43.73 122.686 43.6293 123.142 43.352C123.614 43.0651 123.934 42.6376 124.112 42.1344L122.228 41.4656C122.186 41.5824 122.141 41.6199 122.103 41.643C122.049 41.6757 121.917 41.73 121.64 41.73V43.73ZM124.106 42.1511C124.276 41.6982 124.375 41.0833 124.436 40.3798C124.5 39.6549 124.53 38.7557 124.53 37.69H122.53C122.53 38.7243 122.5 39.5601 122.444 40.2052C122.385 40.8717 122.304 41.2618 122.234 41.4489L124.106 42.1511ZM124.53 37.69V22.57H122.53V37.69H124.53ZM123.53 21.57H121.28V23.57H123.53V21.57ZM122.28 22.57V22H120.28V22.57H122.28ZM147.938 22V21H147.144L146.964 21.7731L147.938 22ZM155.948 22H156.948V21H155.948V22ZM155.948 22.57V23.57H156.948V22.57H155.948ZM154.298 22.57V21.57H153.298V22.57H154.298ZM154.298 42.43H153.298V43.43H154.298V42.43ZM155.948 42.43H156.948V41.43H155.948V42.43ZM155.948 43V44H156.948V43H155.948ZM146.798 43H145.798V44H146.798V43ZM146.798 42.43V41.43H145.798V42.43H146.798ZM148.448 42.43V43.43H149.448V42.43H148.448ZM148.448 23.68H149.448V22.68H148.448V23.68ZM148.328 23.68V22.68H147.534L147.354 23.4532L148.328 23.68ZM143.828 43V44H144.622L144.802 43.2268L143.828 43ZM140.078 43L139.113 43.2625L139.314 44H140.078V43ZM134.798 23.59L135.763 23.3275L135.562 22.59H134.798V23.59ZM134.678 23.59V22.59H133.678V23.59H134.678ZM134.678 42.43H133.678V43.43H134.678V42.43ZM136.328 42.43H137.328V41.43H136.328V42.43ZM136.328 43V44H137.328V43H136.328ZM132.248 43H131.248V44H132.248V43ZM132.248 42.43V41.43H131.248V42.43H132.248ZM133.898 42.43V43.43H134.898V42.43H133.898ZM133.898 22.57H134.898V21.57H133.898V22.57ZM132.248 22.57H131.248V23.57H132.248V22.57ZM132.248 22V21H131.248V22H132.248ZM140.348 22L141.316 21.75L141.123 21H140.348V22ZM144.338 37.45L143.37 37.7L145.312 37.6769L144.338 37.45ZM147.938 23H155.948V21H147.938V23ZM154.948 22V22.57H156.948V22H154.948ZM155.948 21.57H154.298V23.57H155.948V21.57ZM153.298 22.57V42.43H155.298V22.57H153.298ZM154.298 43.43H155.948V41.43H154.298V43.43ZM154.948 42.43V43H156.948V42.43H154.948ZM155.948 42H146.798V44H155.948V42ZM147.798 43V42.43H145.798V43H147.798ZM146.798 43.43H148.448V41.43H146.798V43.43ZM149.448 42.43V23.68H147.448V42.43H149.448ZM148.448 22.68H148.328V24.68H148.448V22.68ZM147.354 23.4532L142.854 42.7732L144.802 43.2268L149.302 23.9068L147.354 23.4532ZM143.828 42H140.078V44H143.828V42ZM141.043 42.7375L135.763 23.3275L133.833 23.8525L139.113 43.2625L141.043 42.7375ZM134.798 22.59H134.678V24.59H134.798V22.59ZM133.678 23.59V42.43H135.678V23.59H133.678ZM134.678 43.43H136.328V41.43H134.678V43.43ZM135.328 42.43V43H137.328V42.43H135.328ZM136.328 42H132.248V44H136.328V42ZM133.248 43V42.43H131.248V43H133.248ZM132.248 43.43H133.898V41.43H132.248V43.43ZM134.898 42.43V22.57H132.898V42.43H134.898ZM133.898 21.57H132.248V23.57H133.898V21.57ZM133.248 22.57V22H131.248V22.57H133.248ZM132.248 23H140.348V21H132.248V23ZM139.38 22.25L143.37 37.7L145.306 37.2L141.316 21.75L139.38 22.25ZM145.312 37.6769L148.912 22.2269L146.964 21.7731L143.364 37.2231L145.312 37.6769Z" fill="#0E4B69"/>
</g>
<circle cx="85" cy="25" r="9" fill="#FFB703"/>
<defs>
<filter id="filter0_ii" x="59" y="-2" width="119" height="70" filterUnits="userSpaceOnUse" color-interpolation-filters="sRGB">
<feFlood flood-opacity="0" result="BackgroundImageFix"/>
<feBlend mode="normal" in="SourceGraphic" in2="BackgroundImageFix" result="shape"/>
<feColorMatrix in="SourceAlpha" type="matrix" values="0 0 0 0 0 0 0 0 0 0 0 0 0 0 0 0 0 0 127 0" result="hardAlpha"/>
<feOffset dx="-10" dy="-10"/>
<feGaussianBlur stdDeviation="7.5"/>
<feComposite in2="hardAlpha" operator="arithmetic" k2="-1" k3="1"/>
<feColorMatrix type="matrix" values="0 0 0 0 0.055 0 0 0 0 0.293333 0 0 0 0 0.4125 0 0 0 1 0"/>
<feBlend mode="lighten" in2="shape" result="effect1_innerShadow"/>
<feColorMatrix in="SourceAlpha" type="matrix" values="0 0 0 0 0 0 0 0 0 0 0 0 0 0 0 0 0 0 127 0" result="hardAlpha"/>
<feOffset dx="10" dy="10"/>
<feGaussianBlur stdDeviation="16.5"/>
<feComposite in2="hardAlpha" operator="arithmetic" k2="-1" k3="1"/>
<feColorMatrix type="matrix" values="0 0 0 0 0 0 0 0 0 0 0 0 0 0 0 0 0 0 1 0"/>
<feBlend mode="normal" in2="effect1_innerShadow" result="effect2_innerShadow"/>
</filter>
<filter id="filter1_dd" x="3.00024" y="-57" width="144.499" height="144.5" filterUnits="userSpaceOnUse" color-interpolation-filters="sRGB">
<feFlood flood-opacity="0" result="BackgroundImageFix"/>
<feColorMatrix in="SourceAlpha" type="matrix" values="0 0 0 0 0 0 0 0 0 0 0 0 0 0 0 0 0 0 127 0"/>
<feOffset dx="-10" dy="-10"/>
<feGaussianBlur stdDeviation="25"/>
<feColorMatrix type="matrix" values="0 0 0 0 0.055 0 0 0 0 0.293333 0 0 0 0 0.4125 0 0 0 1 0"/>
<feBlend mode="lighten" in2="BackgroundImageFix" result="effect1_dropShadow"/>
<feColorMatrix in="SourceAlpha" type="matrix" values="0 0 0 0 0 0 0 0 0 0 0 0 0 0 0 0 0 0 127 0"/>
<feOffset dx="10" dy="10"/>
<feGaussianBlur stdDeviation="7.5"/>
<feColorMatrix type="matrix" values="0 0 0 0 0 0 0 0 0 0 0 0 0 0 0 0 0 0 1 0"/>
<feBlend mode="normal" in2="effect1_dropShadow" result="effect2_dropShadow"/>
<feBlend mode="normal" in="SourceGraphic" in2="effect2_dropShadow" result="shape"/>
</filter>
<filter id="filter2_d" x="111.78" y="21" width="49.168" height="31.27" filterUnits="userSpaceOnUse" color-interpolation-filters="sRGB">
<feFlood flood-opacity="0" result="BackgroundImageFix"/>
<feColorMatrix in="SourceAlpha" type="matrix" values="0 0 0 0 0 0 0 0 0 0 0 0 0 0 0 0 0 0 127 0"/>
<feOffset dy="4"/>
<feGaussianBlur stdDeviation="2"/>
<feColorMatrix type="matrix" values="0 0 0 0 0 0 0 0 0 0 0 0 0 0 0 0 0 0 0.25 0"/>
<feBlend mode="normal" in2="BackgroundImageFix" result="effect1_dropShadow"/>
<feBlend mode="normal" in="SourceGraphic" in2="effect1_dropShadow" result="shape"/>
</filter>
</defs>
</svg>
