<svg width="270" height="172" viewBox="0 0 270 172" fill="none" xmlns="http://www.w3.org/2000/svg">
<path d="M51.3722 64.7121H62.7472V65.3771H60.8222V80.4971C60.8222 83.6471 60.1105 85.9454 58.6872 87.3921C57.2638 88.8154 55.1288 89.5271 52.2822 89.5271C50.3922 89.5271 48.8872 89.1654 47.7672 88.4421C46.6705 87.7188 46.1222 86.7038 46.1222 85.3971C46.1222 84.3938 46.4022 83.6121 46.9622 83.0521C47.5222 82.4688 48.2805 82.1771 49.2372 82.1771C50.2172 82.1771 50.9405 82.4221 51.4072 82.9121C51.8972 83.4021 52.1422 83.9971 52.1422 84.6971C52.1422 85.3738 52.0138 86.0621 51.7572 86.7621H50.3922C50.1822 87.1121 50.0772 87.4504 50.0772 87.7771C50.0772 88.0804 50.2288 88.3488 50.5322 88.5821C50.8588 88.7921 51.2788 88.8971 51.7922 88.8971C52.7255 88.8971 53.3205 88.5354 53.5772 87.8121C53.8572 87.0654 53.9972 85.4671 53.9972 83.0171V65.3771H51.3722V64.7121ZM83.7764 89.2121H75.7964L75.4114 86.6571C75.0381 87.5904 74.4781 88.3138 73.7314 88.8271C73.0081 89.3171 71.9231 89.5621 70.4764 89.5621C66.8597 89.5621 65.0514 87.6138 65.0514 83.7171V73.1821H63.0914V72.5521H71.5614V84.5571C71.5614 85.9571 71.6547 86.8788 71.8414 87.3221C72.0514 87.7654 72.4481 87.9871 73.0314 87.9871C73.6381 87.9871 74.1747 87.6254 74.6414 86.9021C75.1081 86.1788 75.3414 85.1754 75.3414 83.8921V73.1821H73.7314V72.5521H81.8514V88.5821H83.7764V89.2121ZM84.3528 62.9621H92.9278V88.5821H94.8878V89.2121H84.4928V88.5821H86.4178V63.5921H84.3528V62.9621ZM100.712 70.1371C99.4754 70.1371 98.5887 69.8221 98.052 69.1921C97.5387 68.5621 97.282 67.7804 97.282 66.8471C97.282 65.9138 97.562 65.1438 98.122 64.5371C98.7054 63.9304 99.5804 63.6271 100.747 63.6271C101.914 63.6271 102.8 63.9071 103.407 64.4671C104.014 65.0038 104.317 65.7854 104.317 66.8121C104.317 67.8154 104.025 68.6204 103.442 69.2271C102.859 69.8338 101.949 70.1371 100.712 70.1371ZM95.427 72.5521H104.002V88.5821H105.962V89.2121H95.567V88.5821H97.492V73.1821H95.427V72.5521ZM115.075 80.9871H116.09V78.2921C116.09 76.0754 115.962 74.5938 115.705 73.8471C115.472 73.0771 115.005 72.6921 114.305 72.6921C113.885 72.6921 113.5 72.8088 113.15 73.0421C112.824 73.2521 112.66 73.5554 112.66 73.9521C112.66 74.3254 112.73 74.7104 112.87 75.1071H113.745C113.932 75.5971 114.025 76.1921 114.025 76.8921C114.025 77.5688 113.734 78.1638 113.15 78.6771C112.567 79.1671 111.832 79.4121 110.945 79.4121C108.939 79.4121 107.935 78.4438 107.935 76.5071C107.935 73.6371 110.374 72.2021 115.25 72.2021C118.027 72.2021 119.94 72.6804 120.99 73.6371C122.064 74.5704 122.6 76.2971 122.6 78.8171V85.9221C122.6 87.1354 122.939 87.7421 123.615 87.7421C124.409 87.7421 124.875 86.5404 125.015 84.1371L125.54 84.1721C125.447 86.2254 125.062 87.6371 124.385 88.4071C123.709 89.1771 122.6 89.5621 121.06 89.5621C118.26 89.5621 116.65 88.6988 116.23 86.9721C115.927 87.8588 115.472 88.5121 114.865 88.9321C114.259 89.3521 113.372 89.5621 112.205 89.5621C108.752 89.5621 107.025 88.1504 107.025 85.3271C107.025 83.6704 107.679 82.5388 108.985 81.9321C110.315 81.3021 112.345 80.9871 115.075 80.9871ZM113.675 85.2921C113.675 86.5054 113.734 87.2871 113.85 87.6371C113.99 87.9871 114.235 88.1621 114.585 88.1621C114.959 88.1621 115.297 87.8704 115.6 87.2871C115.927 86.6804 116.09 85.8521 116.09 84.8021V81.5471H115.845C114.399 81.5471 113.675 82.6088 113.675 84.7321V85.2921Z" fill="#EEF7FB"/>
<path d="M65.3922 101.712H74.7372V102.377H72.8122V125.547H74.7372V126.212H64.0622V125.547H65.9872V103.672H65.8472L60.5972 126.212H56.2222L50.0622 103.567H49.9222V125.547H51.8472V126.212H47.0872V125.547H49.0122V102.377H47.0872V101.712H56.5372L61.1922 119.737L65.3922 101.712ZM84.3567 117.987H85.3717V115.292C85.3717 113.075 85.2434 111.594 84.9867 110.847C84.7534 110.077 84.2867 109.692 83.5867 109.692C83.1667 109.692 82.7817 109.809 82.4317 110.042C82.105 110.252 81.9417 110.555 81.9417 110.952C81.9417 111.325 82.0117 111.71 82.1517 112.107H83.0267C83.2134 112.597 83.3067 113.192 83.3067 113.892C83.3067 114.569 83.015 115.164 82.4317 115.677C81.8484 116.167 81.1134 116.412 80.2267 116.412C78.22 116.412 77.2167 115.444 77.2167 113.507C77.2167 110.637 79.655 109.202 84.5317 109.202C87.3084 109.202 89.2217 109.68 90.2717 110.637C91.345 111.57 91.8817 113.297 91.8817 115.817V122.922C91.8817 124.135 92.22 124.742 92.8967 124.742C93.69 124.742 94.1567 123.54 94.2967 121.137L94.8217 121.172C94.7284 123.225 94.3434 124.637 93.6667 125.407C92.99 126.177 91.8817 126.562 90.3417 126.562C87.5417 126.562 85.9317 125.699 85.5117 123.972C85.2084 124.859 84.7534 125.512 84.1467 125.932C83.54 126.352 82.6534 126.562 81.4867 126.562C78.0334 126.562 76.3067 125.15 76.3067 122.327C76.3067 120.67 76.96 119.539 78.2667 118.932C79.5967 118.302 81.6267 117.987 84.3567 117.987ZM82.9567 122.292C82.9567 123.505 83.015 124.287 83.1317 124.637C83.2717 124.987 83.5167 125.162 83.8667 125.162C84.24 125.162 84.5784 124.87 84.8817 124.287C85.2084 123.68 85.3717 122.852 85.3717 121.802V118.547H85.1267C83.68 118.547 82.9567 119.609 82.9567 121.732V122.292ZM96.403 121.207V110.182H94.478V109.552H96.403V105.037L102.913 103.427V109.552H107.463V110.182H102.913V121.977C102.913 123.074 103.018 123.879 103.228 124.392C103.461 124.905 103.928 125.162 104.628 125.162C105.328 125.162 105.935 124.812 106.448 124.112C106.985 123.412 107.335 122.455 107.498 121.242L108.093 121.312C107.906 122.922 107.393 124.205 106.553 125.162C105.713 126.095 104.325 126.562 102.388 126.562C100.451 126.562 98.9696 126.177 97.943 125.407C96.9163 124.637 96.403 123.237 96.403 121.207ZM107.736 110.182V109.552H118.201V110.182H115.996L120.196 121.802L123.976 110.182H121.631V109.552H126.356V110.182H124.816L119.636 126.212H115.646L109.171 110.182H107.736ZM131.859 107.137C130.622 107.137 129.735 106.822 129.199 106.192C128.685 105.562 128.429 104.78 128.429 103.847C128.429 102.914 128.709 102.144 129.269 101.537C129.852 100.93 130.727 100.627 131.894 100.627C133.06 100.627 133.947 100.907 134.554 101.467C135.16 102.004 135.464 102.785 135.464 103.812C135.464 104.815 135.172 105.62 134.589 106.227C134.005 106.834 133.095 107.137 131.859 107.137ZM126.574 109.552H135.149V125.582H137.109V126.212H126.714V125.582H128.639V110.182H126.574V109.552ZM142.967 107.137C141.73 107.137 140.844 106.822 140.307 106.192C139.794 105.562 139.537 104.78 139.537 103.847C139.537 102.914 139.817 102.144 140.377 101.537C140.96 100.93 141.835 100.627 143.002 100.627C144.169 100.627 145.055 100.907 145.662 101.467C146.269 102.004 146.572 102.785 146.572 103.812C146.572 104.815 146.28 105.62 145.697 106.227C145.114 106.834 144.204 107.137 142.967 107.137ZM137.682 109.552H146.257V125.582H148.217V126.212H137.822V125.582H139.747V110.182H137.682V109.552ZM149.735 126.562V120.297H150.155C150.762 122.327 151.579 123.75 152.605 124.567C153.632 125.384 154.915 125.792 156.455 125.792C158.835 125.792 160.025 125.034 160.025 123.517C160.025 122.864 159.734 122.374 159.15 122.047C158.24 121.534 157.074 121.137 155.65 120.857C154.064 120.437 152.734 119.877 151.66 119.177C150.377 118.337 149.735 117.007 149.735 115.187C149.735 113.367 150.295 111.92 151.415 110.847C152.535 109.75 154.029 109.202 155.895 109.202C157.039 109.202 158.217 109.47 159.43 110.007C159.874 110.194 160.212 110.287 160.445 110.287C160.679 110.287 160.877 110.205 161.04 110.042C161.204 109.879 161.402 109.575 161.635 109.132H162.02V114.487H161.6C160.41 111.454 158.567 109.937 156.07 109.937C154.974 109.937 154.157 110.135 153.62 110.532C153.084 110.905 152.815 111.384 152.815 111.967C152.815 112.317 152.897 112.597 153.06 112.807C153.224 112.994 153.352 113.134 153.445 113.227C153.539 113.32 153.69 113.425 153.9 113.542C154.11 113.635 154.285 113.717 154.425 113.787C154.565 113.834 154.775 113.904 155.055 113.997C155.359 114.09 155.58 114.149 155.72 114.172C157.307 114.569 158.45 114.919 159.15 115.222C159.85 115.502 160.515 115.852 161.145 116.272C162.429 117.159 163.07 118.594 163.07 120.577C163.07 122.537 162.487 124.03 161.32 125.057C160.154 126.06 158.555 126.562 156.525 126.562C155.079 126.562 153.679 126.224 152.325 125.547C152.045 125.36 151.824 125.267 151.66 125.267C151.147 125.267 150.645 125.699 150.155 126.562H149.735ZM164.106 99.9621H172.541V112.772C172.914 111.699 173.486 110.835 174.256 110.182C175.026 109.529 176.193 109.202 177.756 109.202C181.373 109.202 183.181 111.15 183.181 115.047V125.582H185.141V126.212H175.236V125.582H176.671V114.207C176.671 112.807 176.578 111.909 176.391 111.512C176.204 111.092 175.866 110.882 175.376 110.882C174.629 110.882 173.964 111.372 173.381 112.352C172.821 113.332 172.541 114.522 172.541 115.922V125.582H174.046V126.212H164.106V125.582H166.031V100.592H164.106V99.9621ZM183.755 110.182V109.552H193.905V110.182H192.015L195.83 121.802L199.89 110.182H197.545V109.552H202.48V110.182H200.73L194.185 129.047C193.415 131.24 192.552 132.769 191.595 133.632C190.639 134.519 189.472 134.962 188.095 134.962C186.719 134.962 185.634 134.647 184.84 134.017C184.047 133.387 183.65 132.582 183.65 131.602C183.65 130.622 183.907 129.875 184.42 129.362C184.934 128.849 185.61 128.592 186.45 128.592C188.387 128.592 189.355 129.397 189.355 131.007C189.355 131.357 189.285 131.777 189.145 132.267H187.92C187.734 132.804 187.71 133.247 187.85 133.597C187.99 133.947 188.305 134.122 188.795 134.122C189.752 134.122 190.604 133.644 191.35 132.687C192.097 131.754 192.809 130.319 193.485 128.382L194.255 126.212H191.175L185.19 110.182H183.755ZM202.628 109.552H211.063V112.772C211.437 111.699 212.008 110.835 212.778 110.182C213.548 109.529 214.715 109.202 216.278 109.202C219.895 109.202 221.703 111.15 221.703 115.047V125.582H223.663V126.212H213.758V125.582H215.193V114.207C215.193 112.807 215.1 111.909 214.913 111.512C214.727 111.092 214.388 110.882 213.898 110.882C213.152 110.882 212.487 111.372 211.903 112.352C211.343 113.332 211.063 114.522 211.063 115.922V125.582H212.568V126.212H202.628V125.582H204.553V110.182H202.628V109.552ZM232.526 117.987H233.541V115.292C233.541 113.075 233.412 111.594 233.156 110.847C232.922 110.077 232.456 109.692 231.756 109.692C231.336 109.692 230.951 109.809 230.601 110.042C230.274 110.252 230.111 110.555 230.111 110.952C230.111 111.325 230.181 111.71 230.321 112.107H231.196C231.382 112.597 231.476 113.192 231.476 113.892C231.476 114.569 231.184 115.164 230.601 115.677C230.017 116.167 229.282 116.412 228.396 116.412C226.389 116.412 225.386 115.444 225.386 113.507C225.386 110.637 227.824 109.202 232.701 109.202C235.477 109.202 237.391 109.68 238.441 110.637C239.514 111.57 240.051 113.297 240.051 115.817V122.922C240.051 124.135 240.389 124.742 241.066 124.742C241.859 124.742 242.326 123.54 242.466 121.137L242.991 121.172C242.897 123.225 242.512 124.637 241.836 125.407C241.159 126.177 240.051 126.562 238.511 126.562C235.711 126.562 234.101 125.699 233.681 123.972C233.377 124.859 232.922 125.512 232.316 125.932C231.709 126.352 230.822 126.562 229.656 126.562C226.202 126.562 224.476 125.15 224.476 122.327C224.476 120.67 225.129 119.539 226.436 118.932C227.766 118.302 229.796 117.987 232.526 117.987ZM231.126 122.292C231.126 123.505 231.184 124.287 231.301 124.637C231.441 124.987 231.686 125.162 232.036 125.162C232.409 125.162 232.747 124.87 233.051 124.287C233.377 123.68 233.541 122.852 233.541 121.802V118.547H233.296C231.849 118.547 231.126 119.609 231.126 121.732V122.292Z" fill="#EEF7FB"/>
<g filter="url(#filter0_d)">
<path d="M38.2122 154.212C42.6305 154.212 46.2122 150.63 46.2122 146.212C46.2122 141.794 42.6305 138.212 38.2122 138.212C33.7939 138.212 30.2122 141.794 30.2122 146.212C30.2122 150.63 33.7939 154.212 38.2122 154.212Z" fill="#FFB703"/>
<path d="M38.2122 153.712C42.3543 153.712 45.7122 150.354 45.7122 146.212C45.7122 142.07 42.3543 138.712 38.2122 138.712C34.0701 138.712 30.7122 142.07 30.7122 146.212C30.7122 150.354 34.0701 153.712 38.2122 153.712Z" stroke="white"/>
</g>
<path d="M55.2122 145.712H238.212" stroke="#FB8500"/>
<path d="M37.7122 132.212V31.2121" stroke="#FB8500"/>
<g filter="url(#filter1_d)">
<path fill-rule="evenodd" clip-rule="evenodd" d="M43.4585 26.0018L37.7741 14.085L31.6233 25.8843L37.5759 24.1643L43.4585 26.0018Z" fill="#FB8500"/>
<path d="M43.3095 26.4791L44.4031 26.8207L43.9098 25.7866L38.2253 13.8697L37.7939 12.9653L37.3307 13.8539L31.1799 25.6531L30.64 26.6888L31.762 26.3646L37.5703 24.6864L43.3095 26.4791Z" stroke="white" stroke-miterlimit="16"/>
</g>
<g filter="url(#filter2_d)">
<path fill-rule="evenodd" clip-rule="evenodd" d="M242.212 151.631L254.255 146.219L242.598 139.801L244.182 145.792L242.212 151.631Z" fill="#FB8500"/>
<path d="M241.738 151.471L241.372 152.557L242.417 152.087L254.46 146.675L255.374 146.264L254.496 145.781L242.839 139.363L241.816 138.8L242.115 139.929L243.661 145.774L241.738 151.471Z" stroke="white" stroke-miterlimit="16"/>
</g>
<defs>
<filter id="filter0_d" x="15.2122" y="125.212" width="46" height="46" filterUnits="userSpaceOnUse" color-interpolation-filters="sRGB">
<feFlood flood-opacity="0" result="BackgroundImageFix"/>
<feColorMatrix in="SourceAlpha" type="matrix" values="0 0 0 0 0 0 0 0 0 0 0 0 0 0 0 0 0 0 127 0"/>
<feOffset dy="2"/>
<feGaussianBlur stdDeviation="7.5"/>
<feColorMatrix type="matrix" values="0 0 0 0 0 0 0 0 0 0 0 0 0 0 0 0 0 0 0.2 0"/>
<feBlend mode="normal" in2="BackgroundImageFix" result="effect1_dropShadow"/>
<feBlend mode="normal" in="SourceGraphic" in2="effect1_dropShadow" result="shape"/>
</filter>
<filter id="filter1_d" x="26.6567" y="9.84554" width="21.691" height="21.794" filterUnits="userSpaceOnUse" color-interpolation-filters="sRGB">
<feFlood flood-opacity="0" result="BackgroundImageFix"/>
<feColorMatrix in="SourceAlpha" type="matrix" values="0 0 0 0 0 0 0 0 0 0 0 0 0 0 0 0 0 0 127 0"/>
<feOffset dy="1"/>
<feGaussianBlur stdDeviation="1.5"/>
<feColorMatrix type="matrix" values="0 0 0 0 0 0 0 0 0 0 0 0 0 0 0 0 0 0 0.25 0"/>
<feBlend mode="normal" in2="BackgroundImageFix" result="effect1_dropShadow"/>
<feBlend mode="normal" in="SourceGraphic" in2="effect1_dropShadow" result="shape"/>
</filter>
<filter id="filter2_d" x="237.532" y="135.799" width="21.9608" height="21.6842" filterUnits="userSpaceOnUse" color-interpolation-filters="sRGB">
<feFlood flood-opacity="0" result="BackgroundImageFix"/>
<feColorMatrix in="SourceAlpha" type="matrix" values="0 0 0 0 0 0 0 0 0 0 0 0 0 0 0 0 0 0 127 0"/>
<feOffset dy="1"/>
<feGaussianBlur stdDeviation="1.5"/>
<feColorMatrix type="matrix" values="0 0 0 0 0 0 0 0 0 0 0 0 0 0 0 0 0 0 0.25 0"/>
<feBlend mode="normal" in2="BackgroundImageFix" result="effect1_dropShadow"/>
<feBlend mode="normal" in="SourceGraphic" in2="effect1_dropShadow" result="shape"/>
</filter>
</defs>
</svg>
