<svg width="253" height="172" viewBox="0 0 253 172" fill="none" xmlns="http://www.w3.org/2000/svg">
<path d="M35.3722 64.7121H46.7472V65.3771H44.8222V80.4971C44.8222 83.6471 44.1105 85.9454 42.6872 87.3921C41.2638 88.8154 39.1288 89.5271 36.2822 89.5271C34.3922 89.5271 32.8872 89.1654 31.7672 88.4421C30.6705 87.7188 30.1222 86.7038 30.1222 85.3971C30.1222 84.3938 30.4022 83.6121 30.9622 83.0521C31.5222 82.4688 32.2805 82.1771 33.2372 82.1771C34.2172 82.1771 34.9405 82.4221 35.4072 82.9121C35.8972 83.4021 36.1422 83.9971 36.1422 84.6971C36.1422 85.3738 36.0138 86.0621 35.7572 86.7621H34.3922C34.1822 87.1121 34.0772 87.4504 34.0772 87.7771C34.0772 88.0804 34.2288 88.3488 34.5322 88.5821C34.8588 88.7921 35.2788 88.8971 35.7922 88.8971C36.7255 88.8971 37.3205 88.5354 37.5772 87.8121C37.8572 87.0654 37.9972 85.4671 37.9972 83.0171V65.3771H35.3722V64.7121ZM67.7764 89.2121H59.7964L59.4114 86.6571C59.0381 87.5904 58.4781 88.3138 57.7314 88.8271C57.0081 89.3171 55.9231 89.5621 54.4764 89.5621C50.8597 89.5621 49.0514 87.6138 49.0514 83.7171V73.1821H47.0914V72.5521H55.5614V84.5571C55.5614 85.9571 55.6547 86.8788 55.8414 87.3221C56.0514 87.7654 56.4481 87.9871 57.0314 87.9871C57.6381 87.9871 58.1747 87.6254 58.6414 86.9021C59.1081 86.1788 59.3414 85.1754 59.3414 83.8921V73.1821H57.7314V72.5521H65.8514V88.5821H67.7764V89.2121ZM68.3528 62.9621H76.9278V88.5821H78.8878V89.2121H68.4928V88.5821H70.4178V63.5921H68.3528V62.9621ZM84.712 70.1371C83.4754 70.1371 82.5887 69.8221 82.052 69.1921C81.5387 68.5621 81.282 67.7804 81.282 66.8471C81.282 65.9138 81.562 65.1438 82.122 64.5371C82.7054 63.9304 83.5804 63.6271 84.747 63.6271C85.9137 63.6271 86.8004 63.9071 87.407 64.4671C88.0137 65.0038 88.317 65.7854 88.317 66.8121C88.317 67.8154 88.0254 68.6204 87.442 69.2271C86.8587 69.8338 85.9487 70.1371 84.712 70.1371ZM79.427 72.5521H88.002V88.5821H89.962V89.2121H79.567V88.5821H81.492V73.1821H79.427V72.5521ZM99.0754 80.9871H100.09V78.2921C100.09 76.0754 99.9621 74.5938 99.7054 73.8471C99.4721 73.0771 99.0054 72.6921 98.3054 72.6921C97.8854 72.6921 97.5004 72.8088 97.1504 73.0421C96.8238 73.2521 96.6604 73.5554 96.6604 73.9521C96.6604 74.3254 96.7304 74.7104 96.8704 75.1071H97.7454C97.9321 75.5971 98.0254 76.1921 98.0254 76.8921C98.0254 77.5688 97.7338 78.1638 97.1504 78.6771C96.5671 79.1671 95.8321 79.4121 94.9454 79.4121C92.9388 79.4121 91.9354 78.4438 91.9354 76.5071C91.9354 73.6371 94.3738 72.2021 99.2504 72.2021C102.027 72.2021 103.94 72.6804 104.99 73.6371C106.064 74.5704 106.6 76.2971 106.6 78.8171V85.9221C106.6 87.1354 106.939 87.7421 107.615 87.7421C108.409 87.7421 108.875 86.5404 109.015 84.1371L109.54 84.1721C109.447 86.2254 109.062 87.6371 108.385 88.4071C107.709 89.1771 106.6 89.5621 105.06 89.5621C102.26 89.5621 100.65 88.6988 100.23 86.9721C99.9271 87.8588 99.4721 88.5121 98.8654 88.9321C98.2588 89.3521 97.3721 89.5621 96.2054 89.5621C92.7521 89.5621 91.0254 88.1504 91.0254 85.3271C91.0254 83.6704 91.6788 82.5388 92.9854 81.9321C94.3154 81.3021 96.3454 80.9871 99.0754 80.9871ZM97.6754 85.2921C97.6754 86.5054 97.7338 87.2871 97.8504 87.6371C97.9904 87.9871 98.2354 88.1621 98.5854 88.1621C98.9588 88.1621 99.2971 87.8704 99.6004 87.2871C99.9271 86.6804 100.09 85.8521 100.09 84.8021V81.5471H99.8454C98.3988 81.5471 97.6754 82.6088 97.6754 84.7321V85.2921Z" fill="#0E4B69"/>
<path d="M49.3922 101.712H58.7372V102.377H56.8122V125.547H58.7372V126.212H48.0622V125.547H49.9872V103.672H49.8472L44.5972 126.212H40.2222L34.0622 103.567H33.9222V125.547H35.8472V126.212H31.0872V125.547H33.0122V102.377H31.0872V101.712H40.5372L45.1922 119.737L49.3922 101.712ZM68.3567 117.987H69.3717V115.292C69.3717 113.075 69.2434 111.594 68.9867 110.847C68.7534 110.077 68.2867 109.692 67.5867 109.692C67.1667 109.692 66.7817 109.809 66.4317 110.042C66.105 110.252 65.9417 110.555 65.9417 110.952C65.9417 111.325 66.0117 111.71 66.1517 112.107H67.0267C67.2134 112.597 67.3067 113.192 67.3067 113.892C67.3067 114.569 67.015 115.164 66.4317 115.677C65.8484 116.167 65.1134 116.412 64.2267 116.412C62.22 116.412 61.2167 115.444 61.2167 113.507C61.2167 110.637 63.655 109.202 68.5317 109.202C71.3084 109.202 73.2217 109.68 74.2717 110.637C75.345 111.57 75.8817 113.297 75.8817 115.817V122.922C75.8817 124.135 76.22 124.742 76.8967 124.742C77.69 124.742 78.1567 123.54 78.2967 121.137L78.8217 121.172C78.7284 123.225 78.3434 124.637 77.6667 125.407C76.99 126.177 75.8817 126.562 74.3417 126.562C71.5417 126.562 69.9317 125.699 69.5117 123.972C69.2084 124.859 68.7534 125.512 68.1467 125.932C67.54 126.352 66.6534 126.562 65.4867 126.562C62.0334 126.562 60.3067 125.15 60.3067 122.327C60.3067 120.67 60.96 119.539 62.2667 118.932C63.5967 118.302 65.6267 117.987 68.3567 117.987ZM66.9567 122.292C66.9567 123.505 67.015 124.287 67.1317 124.637C67.2717 124.987 67.5167 125.162 67.8667 125.162C68.24 125.162 68.5784 124.87 68.8817 124.287C69.2084 123.68 69.3717 122.852 69.3717 121.802V118.547H69.1267C67.68 118.547 66.9567 119.609 66.9567 121.732V122.292ZM80.403 121.207V110.182H78.478V109.552H80.403V105.037L86.913 103.427V109.552H91.463V110.182H86.913V121.977C86.913 123.074 87.018 123.879 87.228 124.392C87.4613 124.905 87.928 125.162 88.628 125.162C89.328 125.162 89.9346 124.812 90.448 124.112C90.9846 123.412 91.3346 122.455 91.498 121.242L92.093 121.312C91.9063 122.922 91.393 124.205 90.553 125.162C89.713 126.095 88.3246 126.562 86.388 126.562C84.4513 126.562 82.9696 126.177 81.943 125.407C80.9163 124.637 80.403 123.237 80.403 121.207ZM91.7356 110.182V109.552H102.201V110.182H99.9956L104.196 121.802L107.976 110.182H105.631V109.552H110.356V110.182H108.816L103.636 126.212H99.6456L93.1706 110.182H91.7356ZM115.859 107.137C114.622 107.137 113.735 106.822 113.199 106.192C112.685 105.562 112.429 104.78 112.429 103.847C112.429 102.914 112.709 102.144 113.269 101.537C113.852 100.93 114.727 100.627 115.894 100.627C117.06 100.627 117.947 100.907 118.554 101.467C119.16 102.004 119.464 102.785 119.464 103.812C119.464 104.815 119.172 105.62 118.589 106.227C118.005 106.834 117.095 107.137 115.859 107.137ZM110.574 109.552H119.149V125.582H121.109V126.212H110.714V125.582H112.639V110.182H110.574V109.552ZM126.967 107.137C125.73 107.137 124.844 106.822 124.307 106.192C123.794 105.562 123.537 104.78 123.537 103.847C123.537 102.914 123.817 102.144 124.377 101.537C124.96 100.93 125.835 100.627 127.002 100.627C128.169 100.627 129.055 100.907 129.662 101.467C130.269 102.004 130.572 102.785 130.572 103.812C130.572 104.815 130.28 105.62 129.697 106.227C129.114 106.834 128.204 107.137 126.967 107.137ZM121.682 109.552H130.257V125.582H132.217V126.212H121.822V125.582H123.747V110.182H121.682V109.552ZM133.735 126.562V120.297H134.155C134.762 122.327 135.579 123.75 136.605 124.567C137.632 125.384 138.915 125.792 140.455 125.792C142.835 125.792 144.025 125.034 144.025 123.517C144.025 122.864 143.734 122.374 143.15 122.047C142.24 121.534 141.074 121.137 139.65 120.857C138.064 120.437 136.734 119.877 135.66 119.177C134.377 118.337 133.735 117.007 133.735 115.187C133.735 113.367 134.295 111.92 135.415 110.847C136.535 109.75 138.029 109.202 139.895 109.202C141.039 109.202 142.217 109.47 143.43 110.007C143.874 110.194 144.212 110.287 144.445 110.287C144.679 110.287 144.877 110.205 145.04 110.042C145.204 109.879 145.402 109.575 145.635 109.132H146.02V114.487H145.6C144.41 111.454 142.567 109.937 140.07 109.937C138.974 109.937 138.157 110.135 137.62 110.532C137.084 110.905 136.815 111.384 136.815 111.967C136.815 112.317 136.897 112.597 137.06 112.807C137.224 112.994 137.352 113.134 137.445 113.227C137.539 113.32 137.69 113.425 137.9 113.542C138.11 113.635 138.285 113.717 138.425 113.787C138.565 113.834 138.775 113.904 139.055 113.997C139.359 114.09 139.58 114.149 139.72 114.172C141.307 114.569 142.45 114.919 143.15 115.222C143.85 115.502 144.515 115.852 145.145 116.272C146.429 117.159 147.07 118.594 147.07 120.577C147.07 122.537 146.487 124.03 145.32 125.057C144.154 126.06 142.555 126.562 140.525 126.562C139.079 126.562 137.679 126.224 136.325 125.547C136.045 125.36 135.824 125.267 135.66 125.267C135.147 125.267 134.645 125.699 134.155 126.562H133.735ZM148.106 99.9621H156.541V112.772C156.914 111.699 157.486 110.835 158.256 110.182C159.026 109.529 160.193 109.202 161.756 109.202C165.373 109.202 167.181 111.15 167.181 115.047V125.582H169.141V126.212H159.236V125.582H160.671V114.207C160.671 112.807 160.578 111.909 160.391 111.512C160.204 111.092 159.866 110.882 159.376 110.882C158.629 110.882 157.964 111.372 157.381 112.352C156.821 113.332 156.541 114.522 156.541 115.922V125.582H158.046V126.212H148.106V125.582H150.031V100.592H148.106V99.9621ZM167.755 110.182V109.552H177.905V110.182H176.015L179.83 121.802L183.89 110.182H181.545V109.552H186.48V110.182H184.73L178.185 129.047C177.415 131.24 176.552 132.769 175.595 133.632C174.639 134.519 173.472 134.962 172.095 134.962C170.719 134.962 169.634 134.647 168.84 134.017C168.047 133.387 167.65 132.582 167.65 131.602C167.65 130.622 167.907 129.875 168.42 129.362C168.934 128.849 169.61 128.592 170.45 128.592C172.387 128.592 173.355 129.397 173.355 131.007C173.355 131.357 173.285 131.777 173.145 132.267H171.92C171.734 132.804 171.71 133.247 171.85 133.597C171.99 133.947 172.305 134.122 172.795 134.122C173.752 134.122 174.604 133.644 175.35 132.687C176.097 131.754 176.809 130.319 177.485 128.382L178.255 126.212H175.175L169.19 110.182H167.755ZM186.628 109.552H195.063V112.772C195.437 111.699 196.008 110.835 196.778 110.182C197.548 109.529 198.715 109.202 200.278 109.202C203.895 109.202 205.703 111.15 205.703 115.047V125.582H207.663V126.212H197.758V125.582H199.193V114.207C199.193 112.807 199.1 111.909 198.913 111.512C198.727 111.092 198.388 110.882 197.898 110.882C197.152 110.882 196.487 111.372 195.903 112.352C195.343 113.332 195.063 114.522 195.063 115.922V125.582H196.568V126.212H186.628V125.582H188.553V110.182H186.628V109.552ZM216.526 117.987H217.541V115.292C217.541 113.075 217.412 111.594 217.156 110.847C216.922 110.077 216.456 109.692 215.756 109.692C215.336 109.692 214.951 109.809 214.601 110.042C214.274 110.252 214.111 110.555 214.111 110.952C214.111 111.325 214.181 111.71 214.321 112.107H215.196C215.382 112.597 215.476 113.192 215.476 113.892C215.476 114.569 215.184 115.164 214.601 115.677C214.017 116.167 213.282 116.412 212.396 116.412C210.389 116.412 209.386 115.444 209.386 113.507C209.386 110.637 211.824 109.202 216.701 109.202C219.477 109.202 221.391 109.68 222.441 110.637C223.514 111.57 224.051 113.297 224.051 115.817V122.922C224.051 124.135 224.389 124.742 225.066 124.742C225.859 124.742 226.326 123.54 226.466 121.137L226.991 121.172C226.897 123.225 226.512 124.637 225.836 125.407C225.159 126.177 224.051 126.562 222.511 126.562C219.711 126.562 218.101 125.699 217.681 123.972C217.377 124.859 216.922 125.512 216.316 125.932C215.709 126.352 214.822 126.562 213.656 126.562C210.202 126.562 208.476 125.15 208.476 122.327C208.476 120.67 209.129 119.539 210.436 118.932C211.766 118.302 213.796 117.987 216.526 117.987ZM215.126 122.292C215.126 123.505 215.184 124.287 215.301 124.637C215.441 124.987 215.686 125.162 216.036 125.162C216.409 125.162 216.747 124.87 217.051 124.287C217.377 123.68 217.541 122.852 217.541 121.802V118.547H217.296C215.849 118.547 215.126 119.609 215.126 121.732V122.292Z" fill="#0E4B69"/>
<circle cx="22.2122" cy="146.212" r="8" fill="#C4C4C4"/>
<g filter="url(#filter0_d)">
<circle cx="22.2122" cy="146.212" r="8" fill="#FFB703"/>
<circle cx="22.2122" cy="146.212" r="7.5" stroke="white"/>
</g>
<path d="M39.2122 145.712H222.212" stroke="#FB8500"/>
<path d="M21.7122 132.212L21.7122 31.2121" stroke="#FB8500"/>
<g clip-path="url(#clip0)">
<g filter="url(#filter1_d)">
<path fill-rule="evenodd" clip-rule="evenodd" d="M27.4585 28.0018L21.7741 16.085L15.6233 27.8843L21.5759 26.1643L27.4585 28.0018Z" fill="#FB8500"/>
<path d="M27.3095 28.4791L28.4031 28.8207L27.9098 27.7866L22.2253 15.8697L21.7939 14.9653L21.3307 15.8539L15.1799 27.6531L14.64 28.6888L15.762 28.3646L21.5703 26.6864L27.3095 28.4791Z" stroke="white" stroke-miterlimit="16"/>
</g>
</g>
<g clip-path="url(#clip1)">
<g filter="url(#filter2_d)">
<path fill-rule="evenodd" clip-rule="evenodd" d="M226.212 151.631L238.255 146.219L226.598 139.801L228.182 145.792L226.212 151.631Z" fill="#FB8500"/>
<path d="M225.738 151.471L225.372 152.557L226.417 152.087L238.46 146.675L239.374 146.264L238.496 145.781L226.839 139.363L225.816 138.8L226.115 139.929L227.661 145.774L225.738 151.471Z" stroke="white" stroke-miterlimit="16"/>
</g>
</g>
<defs>
<filter id="filter0_d" x="1.21216" y="125.212" width="46" height="46" filterUnits="userSpaceOnUse" color-interpolation-filters="sRGB">
<feFlood flood-opacity="0" result="BackgroundImageFix"/>
<feColorMatrix in="SourceAlpha" type="matrix" values="0 0 0 0 0 0 0 0 0 0 0 0 0 0 0 0 0 0 127 0"/>
<feOffset dx="2" dy="2"/>
<feGaussianBlur stdDeviation="7.5"/>
<feColorMatrix type="matrix" values="0 0 0 0 0 0 0 0 0 0 0 0 0 0 0 0 0 0 0.2 0"/>
<feBlend mode="normal" in2="BackgroundImageFix" result="effect1_dropShadow"/>
<feBlend mode="normal" in="SourceGraphic" in2="effect1_dropShadow" result="shape"/>
</filter>
<filter id="filter1_d" x="10.6567" y="11.8455" width="20.7044" height="21.6478" filterUnits="userSpaceOnUse" color-interpolation-filters="sRGB">
<feFlood flood-opacity="0" result="BackgroundImageFix"/>
<feColorMatrix in="SourceAlpha" type="matrix" values="0 0 0 0 0 0 0 0 0 0 0 0 0 0 0 0 0 0 127 0"/>
<feOffset dy="1"/>
<feGaussianBlur stdDeviation="1.5"/>
<feColorMatrix type="matrix" values="0 0 0 0 0 0 0 0 0 0 0 0 0 0 0 0 0 0 0.25 0"/>
<feBlend mode="normal" in2="BackgroundImageFix" result="effect1_dropShadow"/>
<feBlend mode="normal" in="SourceGraphic" in2="effect1_dropShadow" result="shape"/>
</filter>
<filter id="filter2_d" x="222.034" y="135.799" width="21.4586" height="20.7442" filterUnits="userSpaceOnUse" color-interpolation-filters="sRGB">
<feFlood flood-opacity="0" result="BackgroundImageFix"/>
<feColorMatrix in="SourceAlpha" type="matrix" values="0 0 0 0 0 0 0 0 0 0 0 0 0 0 0 0 0 0 127 0"/>
<feOffset dy="1"/>
<feGaussianBlur stdDeviation="1.5"/>
<feColorMatrix type="matrix" values="0 0 0 0 0 0 0 0 0 0 0 0 0 0 0 0 0 0 0.25 0"/>
<feBlend mode="normal" in2="BackgroundImageFix" result="effect1_dropShadow"/>
<feBlend mode="normal" in="SourceGraphic" in2="effect1_dropShadow" result="shape"/>
</filter>
<clipPath id="clip0">
<rect width="32" height="32" fill="white" transform="translate(20.5042) rotate(39.8481)"/>
</clipPath>
<clipPath id="clip1">
<rect width="32" height="32" fill="white" transform="translate(252.365 145.269) rotate(131.149)"/>
</clipPath>
</defs>
</svg>
