<svg width="254" height="172" viewBox="0 0 254 172" fill="none" xmlns="http://www.w3.org/2000/svg">
<path d="M36.3722 64.7121H47.7472V65.3771H45.8222V80.4971C45.8222 83.6471 45.1105 85.9454 43.6872 87.3921C42.2638 88.8154 40.1288 89.5271 37.2822 89.5271C35.3922 89.5271 33.8872 89.1654 32.7672 88.4421C31.6705 87.7188 31.1222 86.7038 31.1222 85.3971C31.1222 84.3938 31.4022 83.6121 31.9622 83.0521C32.5222 82.4688 33.2805 82.1771 34.2372 82.1771C35.2172 82.1771 35.9405 82.4221 36.4072 82.9121C36.8972 83.4021 37.1422 83.9971 37.1422 84.6971C37.1422 85.3738 37.0138 86.0621 36.7572 86.7621H35.3922C35.1822 87.1121 35.0772 87.4504 35.0772 87.7771C35.0772 88.0804 35.2288 88.3488 35.5322 88.5821C35.8588 88.7921 36.2788 88.8971 36.7922 88.8971C37.7255 88.8971 38.3205 88.5354 38.5772 87.8121C38.8572 87.0654 38.9972 85.4671 38.9972 83.0171V65.3771H36.3722V64.7121ZM68.7764 89.2121H60.7964L60.4114 86.6571C60.0381 87.5904 59.4781 88.3138 58.7314 88.8271C58.0081 89.3171 56.9231 89.5621 55.4764 89.5621C51.8597 89.5621 50.0514 87.6138 50.0514 83.7171V73.1821H48.0914V72.5521H56.5614V84.5571C56.5614 85.9571 56.6547 86.8788 56.8414 87.3221C57.0514 87.7654 57.4481 87.9871 58.0314 87.9871C58.6381 87.9871 59.1747 87.6254 59.6414 86.9021C60.1081 86.1788 60.3414 85.1754 60.3414 83.8921V73.1821H58.7314V72.5521H66.8514V88.5821H68.7764V89.2121ZM69.3528 62.9621H77.9278V88.5821H79.8878V89.2121H69.4928V88.5821H71.4178V63.5921H69.3528V62.9621ZM85.712 70.1371C84.4754 70.1371 83.5887 69.8221 83.052 69.1921C82.5387 68.5621 82.282 67.7804 82.282 66.8471C82.282 65.9138 82.562 65.1438 83.122 64.5371C83.7054 63.9304 84.5804 63.6271 85.747 63.6271C86.9137 63.6271 87.8004 63.9071 88.407 64.4671C89.0137 65.0038 89.317 65.7854 89.317 66.8121C89.317 67.8154 89.0254 68.6204 88.442 69.2271C87.8587 69.8338 86.9487 70.1371 85.712 70.1371ZM80.427 72.5521H89.002V88.5821H90.962V89.2121H80.567V88.5821H82.492V73.1821H80.427V72.5521ZM100.075 80.9871H101.09V78.2921C101.09 76.0754 100.962 74.5938 100.705 73.8471C100.472 73.0771 100.005 72.6921 99.3054 72.6921C98.8854 72.6921 98.5004 72.8088 98.1504 73.0421C97.8238 73.2521 97.6604 73.5554 97.6604 73.9521C97.6604 74.3254 97.7304 74.7104 97.8704 75.1071H98.7454C98.9321 75.5971 99.0254 76.1921 99.0254 76.8921C99.0254 77.5688 98.7338 78.1638 98.1504 78.6771C97.5671 79.1671 96.8321 79.4121 95.9454 79.4121C93.9388 79.4121 92.9354 78.4438 92.9354 76.5071C92.9354 73.6371 95.3738 72.2021 100.25 72.2021C103.027 72.2021 104.94 72.6804 105.99 73.6371C107.064 74.5704 107.6 76.2971 107.6 78.8171V85.9221C107.6 87.1354 107.939 87.7421 108.615 87.7421C109.409 87.7421 109.875 86.5404 110.015 84.1371L110.54 84.1721C110.447 86.2254 110.062 87.6371 109.385 88.4071C108.709 89.1771 107.6 89.5621 106.06 89.5621C103.26 89.5621 101.65 88.6988 101.23 86.9721C100.927 87.8588 100.472 88.5121 99.8654 88.9321C99.2588 89.3521 98.3721 89.5621 97.2054 89.5621C93.7521 89.5621 92.0254 88.1504 92.0254 85.3271C92.0254 83.6704 92.6788 82.5388 93.9854 81.9321C95.3154 81.3021 97.3454 80.9871 100.075 80.9871ZM98.6754 85.2921C98.6754 86.5054 98.7338 87.2871 98.8504 87.6371C98.9904 87.9871 99.2354 88.1621 99.5854 88.1621C99.9588 88.1621 100.297 87.8704 100.6 87.2871C100.927 86.6804 101.09 85.8521 101.09 84.8021V81.5471H100.845C99.3988 81.5471 98.6754 82.6088 98.6754 84.7321V85.2921Z" fill="#25AED0"/>
<path d="M50.3922 101.712H59.7372V102.377H57.8122V125.547H59.7372V126.212H49.0622V125.547H50.9872V103.672H50.8472L45.5972 126.212H41.2222L35.0622 103.567H34.9222V125.547H36.8472V126.212H32.0872V125.547H34.0122V102.377H32.0872V101.712H41.5372L46.1922 119.737L50.3922 101.712ZM69.3567 117.987H70.3717V115.292C70.3717 113.075 70.2434 111.594 69.9867 110.847C69.7534 110.077 69.2867 109.692 68.5867 109.692C68.1667 109.692 67.7817 109.809 67.4317 110.042C67.105 110.252 66.9417 110.555 66.9417 110.952C66.9417 111.325 67.0117 111.71 67.1517 112.107H68.0267C68.2134 112.597 68.3067 113.192 68.3067 113.892C68.3067 114.569 68.015 115.164 67.4317 115.677C66.8484 116.167 66.1134 116.412 65.2267 116.412C63.22 116.412 62.2167 115.444 62.2167 113.507C62.2167 110.637 64.655 109.202 69.5317 109.202C72.3084 109.202 74.2217 109.68 75.2717 110.637C76.345 111.57 76.8817 113.297 76.8817 115.817V122.922C76.8817 124.135 77.22 124.742 77.8967 124.742C78.69 124.742 79.1567 123.54 79.2967 121.137L79.8217 121.172C79.7284 123.225 79.3434 124.637 78.6667 125.407C77.99 126.177 76.8817 126.562 75.3417 126.562C72.5417 126.562 70.9317 125.699 70.5117 123.972C70.2084 124.859 69.7534 125.512 69.1467 125.932C68.54 126.352 67.6534 126.562 66.4867 126.562C63.0334 126.562 61.3067 125.15 61.3067 122.327C61.3067 120.67 61.96 119.539 63.2667 118.932C64.5967 118.302 66.6267 117.987 69.3567 117.987ZM67.9567 122.292C67.9567 123.505 68.015 124.287 68.1317 124.637C68.2717 124.987 68.5167 125.162 68.8667 125.162C69.24 125.162 69.5784 124.87 69.8817 124.287C70.2084 123.68 70.3717 122.852 70.3717 121.802V118.547H70.1267C68.68 118.547 67.9567 119.609 67.9567 121.732V122.292ZM81.403 121.207V110.182H79.478V109.552H81.403V105.037L87.913 103.427V109.552H92.463V110.182H87.913V121.977C87.913 123.074 88.018 123.879 88.228 124.392C88.4613 124.905 88.928 125.162 89.628 125.162C90.328 125.162 90.9346 124.812 91.448 124.112C91.9846 123.412 92.3346 122.455 92.498 121.242L93.093 121.312C92.9063 122.922 92.393 124.205 91.553 125.162C90.713 126.095 89.3246 126.562 87.388 126.562C85.4513 126.562 83.9696 126.177 82.943 125.407C81.9163 124.637 81.403 123.237 81.403 121.207ZM92.7356 110.182V109.552H103.201V110.182H100.996L105.196 121.802L108.976 110.182H106.631V109.552H111.356V110.182H109.816L104.636 126.212H100.646L94.1706 110.182H92.7356ZM116.859 107.137C115.622 107.137 114.735 106.822 114.199 106.192C113.685 105.562 113.429 104.78 113.429 103.847C113.429 102.914 113.709 102.144 114.269 101.537C114.852 100.93 115.727 100.627 116.894 100.627C118.06 100.627 118.947 100.907 119.554 101.467C120.16 102.004 120.464 102.785 120.464 103.812C120.464 104.815 120.172 105.62 119.589 106.227C119.005 106.834 118.095 107.137 116.859 107.137ZM111.574 109.552H120.149V125.582H122.109V126.212H111.714V125.582H113.639V110.182H111.574V109.552ZM127.967 107.137C126.73 107.137 125.844 106.822 125.307 106.192C124.794 105.562 124.537 104.78 124.537 103.847C124.537 102.914 124.817 102.144 125.377 101.537C125.96 100.93 126.835 100.627 128.002 100.627C129.169 100.627 130.055 100.907 130.662 101.467C131.269 102.004 131.572 102.785 131.572 103.812C131.572 104.815 131.28 105.62 130.697 106.227C130.114 106.834 129.204 107.137 127.967 107.137ZM122.682 109.552H131.257V125.582H133.217V126.212H122.822V125.582H124.747V110.182H122.682V109.552ZM134.735 126.562V120.297H135.155C135.762 122.327 136.579 123.75 137.605 124.567C138.632 125.384 139.915 125.792 141.455 125.792C143.835 125.792 145.025 125.034 145.025 123.517C145.025 122.864 144.734 122.374 144.15 122.047C143.24 121.534 142.074 121.137 140.65 120.857C139.064 120.437 137.734 119.877 136.66 119.177C135.377 118.337 134.735 117.007 134.735 115.187C134.735 113.367 135.295 111.92 136.415 110.847C137.535 109.75 139.029 109.202 140.895 109.202C142.039 109.202 143.217 109.47 144.43 110.007C144.874 110.194 145.212 110.287 145.445 110.287C145.679 110.287 145.877 110.205 146.04 110.042C146.204 109.879 146.402 109.575 146.635 109.132H147.02V114.487H146.6C145.41 111.454 143.567 109.937 141.07 109.937C139.974 109.937 139.157 110.135 138.62 110.532C138.084 110.905 137.815 111.384 137.815 111.967C137.815 112.317 137.897 112.597 138.06 112.807C138.224 112.994 138.352 113.134 138.445 113.227C138.539 113.32 138.69 113.425 138.9 113.542C139.11 113.635 139.285 113.717 139.425 113.787C139.565 113.834 139.775 113.904 140.055 113.997C140.359 114.09 140.58 114.149 140.72 114.172C142.307 114.569 143.45 114.919 144.15 115.222C144.85 115.502 145.515 115.852 146.145 116.272C147.429 117.159 148.07 118.594 148.07 120.577C148.07 122.537 147.487 124.03 146.32 125.057C145.154 126.06 143.555 126.562 141.525 126.562C140.079 126.562 138.679 126.224 137.325 125.547C137.045 125.36 136.824 125.267 136.66 125.267C136.147 125.267 135.645 125.699 135.155 126.562H134.735ZM149.106 99.9621H157.541V112.772C157.914 111.699 158.486 110.835 159.256 110.182C160.026 109.529 161.193 109.202 162.756 109.202C166.373 109.202 168.181 111.15 168.181 115.047V125.582H170.141V126.212H160.236V125.582H161.671V114.207C161.671 112.807 161.578 111.909 161.391 111.512C161.204 111.092 160.866 110.882 160.376 110.882C159.629 110.882 158.964 111.372 158.381 112.352C157.821 113.332 157.541 114.522 157.541 115.922V125.582H159.046V126.212H149.106V125.582H151.031V100.592H149.106V99.9621ZM168.755 110.182V109.552H178.905V110.182H177.015L180.83 121.802L184.89 110.182H182.545V109.552H187.48V110.182H185.73L179.185 129.047C178.415 131.24 177.552 132.769 176.595 133.632C175.639 134.519 174.472 134.962 173.095 134.962C171.719 134.962 170.634 134.647 169.84 134.017C169.047 133.387 168.65 132.582 168.65 131.602C168.65 130.622 168.907 129.875 169.42 129.362C169.934 128.849 170.61 128.592 171.45 128.592C173.387 128.592 174.355 129.397 174.355 131.007C174.355 131.357 174.285 131.777 174.145 132.267H172.92C172.734 132.804 172.71 133.247 172.85 133.597C172.99 133.947 173.305 134.122 173.795 134.122C174.752 134.122 175.604 133.644 176.35 132.687C177.097 131.754 177.809 130.319 178.485 128.382L179.255 126.212H176.175L170.19 110.182H168.755ZM187.628 109.552H196.063V112.772C196.437 111.699 197.008 110.835 197.778 110.182C198.548 109.529 199.715 109.202 201.278 109.202C204.895 109.202 206.703 111.15 206.703 115.047V125.582H208.663V126.212H198.758V125.582H200.193V114.207C200.193 112.807 200.1 111.909 199.913 111.512C199.727 111.092 199.388 110.882 198.898 110.882C198.152 110.882 197.487 111.372 196.903 112.352C196.343 113.332 196.063 114.522 196.063 115.922V125.582H197.568V126.212H187.628V125.582H189.553V110.182H187.628V109.552ZM217.526 117.987H218.541V115.292C218.541 113.075 218.412 111.594 218.156 110.847C217.922 110.077 217.456 109.692 216.756 109.692C216.336 109.692 215.951 109.809 215.601 110.042C215.274 110.252 215.111 110.555 215.111 110.952C215.111 111.325 215.181 111.71 215.321 112.107H216.196C216.382 112.597 216.476 113.192 216.476 113.892C216.476 114.569 216.184 115.164 215.601 115.677C215.017 116.167 214.282 116.412 213.396 116.412C211.389 116.412 210.386 115.444 210.386 113.507C210.386 110.637 212.824 109.202 217.701 109.202C220.477 109.202 222.391 109.68 223.441 110.637C224.514 111.57 225.051 113.297 225.051 115.817V122.922C225.051 124.135 225.389 124.742 226.066 124.742C226.859 124.742 227.326 123.54 227.466 121.137L227.991 121.172C227.897 123.225 227.512 124.637 226.836 125.407C226.159 126.177 225.051 126.562 223.511 126.562C220.711 126.562 219.101 125.699 218.681 123.972C218.377 124.859 217.922 125.512 217.316 125.932C216.709 126.352 215.822 126.562 214.656 126.562C211.202 126.562 209.476 125.15 209.476 122.327C209.476 120.67 210.129 119.539 211.436 118.932C212.766 118.302 214.796 117.987 217.526 117.987ZM216.126 122.292C216.126 123.505 216.184 124.287 216.301 124.637C216.441 124.987 216.686 125.162 217.036 125.162C217.409 125.162 217.747 124.87 218.051 124.287C218.377 123.68 218.541 122.852 218.541 121.802V118.547H218.296C216.849 118.547 216.126 119.609 216.126 121.732V122.292Z" fill="#25AED0"/>
<circle cx="23.2122" cy="146.212" r="8" fill="#C4C4C4"/>
<g filter="url(#filter0_d)">
<circle cx="23.2122" cy="146.212" r="8" fill="#FFB703"/>
<circle cx="23.2122" cy="146.212" r="7.5" stroke="white"/>
</g>
<path d="M40.2122 145.712H223.212" stroke="#FB8500"/>
<path d="M22.7122 132.212L22.7122 31.2121" stroke="#FB8500"/>
<g clip-path="url(#clip0)">
<g filter="url(#filter1_d)">
<path fill-rule="evenodd" clip-rule="evenodd" d="M28.4585 26.0019L22.7741 14.085L16.6233 25.8843L22.5759 24.1644L28.4585 26.0019V26.0019Z" fill="#FB8500"/>
<path d="M23.2253 13.8697L22.7939 12.9653L22.3307 13.8539L16.1799 25.6532L15.64 26.6888L16.762 26.3646L22.5703 24.6864L28.3095 26.4791L28.4585 26.0019L28.9098 25.7866L23.2253 13.8697Z" stroke="white" stroke-miterlimit="16"/>
</g>
</g>
<g clip-path="url(#clip1)">
<g filter="url(#filter2_d)">
<path fill-rule="evenodd" clip-rule="evenodd" d="M227.212 151.631L239.255 146.219L227.598 139.801L229.182 145.792L227.212 151.631V151.631Z" fill="#FB8500"/>
<path d="M239.46 146.675L240.374 146.264L239.496 145.781L227.839 139.363L226.816 138.8L227.115 139.929L228.661 145.774L226.738 151.471L227.212 151.631L227.417 152.087L239.46 146.675Z" stroke="white" stroke-miterlimit="16"/>
</g>
</g>
<defs>
<filter id="filter0_d" x="0.212158" y="125.212" width="46" height="46" filterUnits="userSpaceOnUse" color-interpolation-filters="sRGB">
<feFlood flood-opacity="0" result="BackgroundImageFix"/>
<feColorMatrix in="SourceAlpha" type="matrix" values="0 0 0 0 0 0 0 0 0 0 0 0 0 0 0 0 0 0 127 0"/>
<feOffset dy="2"/>
<feGaussianBlur stdDeviation="7.5"/>
<feColorMatrix type="matrix" values="0 0 0 0 0 0 0 0 0 0 0 0 0 0 0 0 0 0 0.2 0"/>
<feBlend mode="normal" in2="BackgroundImageFix" result="effect1_dropShadow"/>
<feBlend mode="normal" in="SourceGraphic" in2="effect1_dropShadow" result="shape"/>
</filter>
<filter id="filter1_d" x="11.6567" y="9.84554" width="20.7044" height="21.6478" filterUnits="userSpaceOnUse" color-interpolation-filters="sRGB">
<feFlood flood-opacity="0" result="BackgroundImageFix"/>
<feColorMatrix in="SourceAlpha" type="matrix" values="0 0 0 0 0 0 0 0 0 0 0 0 0 0 0 0 0 0 127 0"/>
<feOffset dy="1"/>
<feGaussianBlur stdDeviation="1.5"/>
<feColorMatrix type="matrix" values="0 0 0 0 0 0 0 0 0 0 0 0 0 0 0 0 0 0 0.25 0"/>
<feBlend mode="normal" in2="BackgroundImageFix" result="effect1_dropShadow"/>
<feBlend mode="normal" in="SourceGraphic" in2="effect1_dropShadow" result="shape"/>
</filter>
<filter id="filter2_d" x="223.034" y="135.799" width="21.4586" height="20.7442" filterUnits="userSpaceOnUse" color-interpolation-filters="sRGB">
<feFlood flood-opacity="0" result="BackgroundImageFix"/>
<feColorMatrix in="SourceAlpha" type="matrix" values="0 0 0 0 0 0 0 0 0 0 0 0 0 0 0 0 0 0 127 0"/>
<feOffset dy="1"/>
<feGaussianBlur stdDeviation="1.5"/>
<feColorMatrix type="matrix" values="0 0 0 0 0 0 0 0 0 0 0 0 0 0 0 0 0 0 0.25 0"/>
<feBlend mode="normal" in2="BackgroundImageFix" result="effect1_dropShadow"/>
<feBlend mode="normal" in="SourceGraphic" in2="effect1_dropShadow" result="shape"/>
</filter>
<clipPath id="clip0">
<rect width="32" height="32" fill="white" transform="translate(21.5042) rotate(39.8481)"/>
</clipPath>
<clipPath id="clip1">
<rect width="32" height="32" fill="white" transform="translate(253.365 145.269) rotate(131.149)"/>
</clipPath>
</defs>
</svg>
