<svg width="256" height="172" viewBox="0 0 256 172" fill="none" xmlns="http://www.w3.org/2000/svg">
<path d="M38.3722 64.7121H49.7472V65.3771H47.8222V80.4971C47.8222 83.6471 47.1105 85.9454 45.6872 87.3921C44.2638 88.8154 42.1288 89.5271 39.2822 89.5271C37.3922 89.5271 35.8872 89.1654 34.7672 88.4421C33.6705 87.7188 33.1222 86.7038 33.1222 85.3971C33.1222 84.3938 33.4022 83.6121 33.9622 83.0521C34.5222 82.4688 35.2805 82.1771 36.2372 82.1771C37.2172 82.1771 37.9405 82.4221 38.4072 82.9121C38.8972 83.4021 39.1422 83.9971 39.1422 84.6971C39.1422 85.3738 39.0138 86.0621 38.7572 86.7621H37.3922C37.1822 87.1121 37.0772 87.4504 37.0772 87.7771C37.0772 88.0804 37.2288 88.3488 37.5322 88.5821C37.8588 88.7921 38.2788 88.8971 38.7922 88.8971C39.7255 88.8971 40.3205 88.5354 40.5772 87.8121C40.8572 87.0654 40.9972 85.4671 40.9972 83.0171V65.3771H38.3722V64.7121ZM70.7764 89.2121H62.7964L62.4114 86.6571C62.0381 87.5904 61.4781 88.3138 60.7314 88.8271C60.0081 89.3171 58.9231 89.5621 57.4764 89.5621C53.8597 89.5621 52.0514 87.6138 52.0514 83.7171V73.1821H50.0914V72.5521H58.5614V84.5571C58.5614 85.9571 58.6547 86.8788 58.8414 87.3221C59.0514 87.7654 59.4481 87.9871 60.0314 87.9871C60.6381 87.9871 61.1747 87.6254 61.6414 86.9021C62.1081 86.1788 62.3414 85.1754 62.3414 83.8921V73.1821H60.7314V72.5521H68.8514V88.5821H70.7764V89.2121ZM71.3528 62.9621H79.9278V88.5821H81.8878V89.2121H71.4928V88.5821H73.4178V63.5921H71.3528V62.9621ZM87.712 70.1371C86.4754 70.1371 85.5887 69.8221 85.052 69.1921C84.5387 68.5621 84.282 67.7804 84.282 66.8471C84.282 65.9138 84.562 65.1438 85.122 64.5371C85.7054 63.9304 86.5804 63.6271 87.747 63.6271C88.9137 63.6271 89.8004 63.9071 90.407 64.4671C91.0137 65.0038 91.317 65.7854 91.317 66.8121C91.317 67.8154 91.0254 68.6204 90.442 69.2271C89.8587 69.8338 88.9487 70.1371 87.712 70.1371ZM82.427 72.5521H91.002V88.5821H92.962V89.2121H82.567V88.5821H84.492V73.1821H82.427V72.5521ZM102.075 80.9871H103.09V78.2921C103.09 76.0754 102.962 74.5938 102.705 73.8471C102.472 73.0771 102.005 72.6921 101.305 72.6921C100.885 72.6921 100.5 72.8088 100.15 73.0421C99.8238 73.2521 99.6604 73.5554 99.6604 73.9521C99.6604 74.3254 99.7304 74.7104 99.8704 75.1071H100.745C100.932 75.5971 101.025 76.1921 101.025 76.8921C101.025 77.5688 100.734 78.1638 100.15 78.6771C99.5671 79.1671 98.8321 79.4121 97.9454 79.4121C95.9388 79.4121 94.9354 78.4438 94.9354 76.5071C94.9354 73.6371 97.3738 72.2021 102.25 72.2021C105.027 72.2021 106.94 72.6804 107.99 73.6371C109.064 74.5704 109.6 76.2971 109.6 78.8171V85.9221C109.6 87.1354 109.939 87.7421 110.615 87.7421C111.409 87.7421 111.875 86.5404 112.015 84.1371L112.54 84.1721C112.447 86.2254 112.062 87.6371 111.385 88.4071C110.709 89.1771 109.6 89.5621 108.06 89.5621C105.26 89.5621 103.65 88.6988 103.23 86.9721C102.927 87.8588 102.472 88.5121 101.865 88.9321C101.259 89.3521 100.372 89.5621 99.2054 89.5621C95.7521 89.5621 94.0254 88.1504 94.0254 85.3271C94.0254 83.6704 94.6788 82.5388 95.9854 81.9321C97.3154 81.3021 99.3454 80.9871 102.075 80.9871ZM100.675 85.2921C100.675 86.5054 100.734 87.2871 100.85 87.6371C100.99 87.9871 101.235 88.1621 101.585 88.1621C101.959 88.1621 102.297 87.8704 102.6 87.2871C102.927 86.6804 103.09 85.8521 103.09 84.8021V81.5471H102.845C101.399 81.5471 100.675 82.6088 100.675 84.7321V85.2921Z" fill="#EEF7FB"/>
<path d="M38.3722 64.7121V63.7121H37.3722V64.7121H38.3722ZM49.7472 64.7121H50.7472V63.7121H49.7472V64.7121ZM49.7472 65.3771V66.3771H50.7472V65.3771H49.7472ZM47.8222 65.3771V64.3771H46.8222V65.3771H47.8222ZM45.6872 87.3921L46.3943 88.0992L46.4 88.0934L45.6872 87.3921ZM34.7672 88.4421L34.2165 89.2769L34.2246 89.2821L34.7672 88.4421ZM33.9622 83.0521L34.6693 83.7592L34.6765 83.752L34.6835 83.7446L33.9622 83.0521ZM38.4072 82.9121L37.683 83.6018L37.6914 83.6106L37.7001 83.6192L38.4072 82.9121ZM38.7572 86.7621V87.7621H39.4556L39.696 87.1064L38.7572 86.7621ZM37.3922 86.7621V85.7621H36.826L36.5347 86.2476L37.3922 86.7621ZM37.5322 88.5821L36.9224 89.3747L36.9559 89.4005L36.9914 89.4233L37.5322 88.5821ZM40.5772 87.8121L39.6408 87.461L39.6377 87.4693L39.6347 87.4777L40.5772 87.8121ZM40.9972 65.3771H41.9972V64.3771H40.9972V65.3771ZM38.3722 65.3771H37.3722V66.3771H38.3722V65.3771ZM38.3722 65.7121H49.7472V63.7121H38.3722V65.7121ZM48.7472 64.7121V65.3771H50.7472V64.7121H48.7472ZM49.7472 64.3771H47.8222V66.3771H49.7472V64.3771ZM46.8222 65.3771V80.4971H48.8222V65.3771H46.8222ZM46.8222 80.4971C46.8222 83.5256 46.1341 85.512 44.9743 86.6908L46.4 88.0934C48.0869 86.3789 48.8222 83.7686 48.8222 80.4971H46.8222ZM44.9801 86.685C43.8104 87.8546 41.9747 88.5271 39.2822 88.5271V90.5271C42.283 90.5271 44.7173 89.7762 46.3943 88.0992L44.9801 86.685ZM39.2822 88.5271C37.5078 88.5271 36.2137 88.1859 35.3097 87.6021L34.2246 89.2821C35.5606 90.1449 37.2765 90.5271 39.2822 90.5271V88.5271ZM35.3178 87.6073C34.4998 87.0678 34.1222 86.3655 34.1222 85.3971H32.1222C32.1222 87.0421 32.8412 88.3697 34.2166 89.2769L35.3178 87.6073ZM34.1222 85.3971C34.1222 84.5845 34.3436 84.0849 34.6693 83.7592L33.2551 82.345C32.4607 83.1393 32.1222 84.203 32.1222 85.3971H34.1222ZM34.6835 83.7446C35.0206 83.3935 35.4988 83.1771 36.2372 83.1771V81.1771C35.0621 81.1771 34.0237 81.544 33.2408 82.3596L34.6835 83.7446ZM36.2372 83.1771C37.0673 83.1771 37.4762 83.3846 37.683 83.6018L39.1313 82.2224C38.4048 81.4596 37.367 81.1771 36.2372 81.1771V83.1771ZM37.7001 83.6192C38.0004 83.9195 38.1422 84.2593 38.1422 84.6971H40.1422C40.1422 83.7349 39.7939 82.8847 39.1143 82.205L37.7001 83.6192ZM38.1422 84.6971C38.1422 85.2449 38.0386 85.8169 37.8183 86.4178L39.696 87.1064C39.989 86.3073 40.1422 85.5026 40.1422 84.6971H38.1422ZM38.7572 85.7621H37.3922V87.7621H38.7572V85.7621ZM36.5347 86.2476C36.2545 86.7146 36.0772 87.2291 36.0772 87.7771H38.0772C38.0772 87.6718 38.1098 87.5096 38.2497 87.2766L36.5347 86.2476ZM36.0772 87.7771C36.0772 88.4705 36.4439 89.0066 36.9224 89.3747L38.1419 87.7895C38.0715 87.7354 38.0575 87.7068 38.0615 87.7138C38.0637 87.7177 38.0684 87.7273 38.0722 87.7416C38.076 87.756 38.0772 87.7686 38.0772 87.7771H36.0772ZM36.9914 89.4233C37.5236 89.7654 38.1475 89.8971 38.7922 89.8971V87.8971C38.4101 87.8971 38.194 87.8188 38.0729 87.7409L36.9914 89.4233ZM38.7922 89.8971C39.3816 89.8971 39.9591 89.7835 40.4578 89.4804C40.9724 89.1676 41.3227 88.7014 41.5196 88.1465L39.6347 87.4777C39.575 87.6461 39.4994 87.7224 39.419 87.7713C39.3227 87.8299 39.1361 87.8971 38.7922 87.8971V89.8971ZM41.5135 88.1632C41.7033 87.657 41.8167 86.9583 41.8883 86.1406C41.9618 85.3016 41.9972 84.2578 41.9972 83.0171H39.9972C39.9972 84.2264 39.9625 85.2068 39.896 85.9661C39.8276 86.7467 39.731 87.2205 39.6408 87.461L41.5135 88.1632ZM41.9972 83.0171V65.3771H39.9972V83.0171H41.9972ZM40.9972 64.3771H38.3722V66.3771H40.9972V64.3771ZM39.3722 65.3771V64.7121H37.3722V65.3771H39.3722ZM70.7764 89.2121V90.2121H71.7764V89.2121H70.7764ZM62.7964 89.2121L61.8076 89.3611L61.9358 90.2121H62.7964V89.2121ZM62.4114 86.6571L63.4003 86.5081L62.8513 82.8649L61.4829 86.2857L62.4114 86.6571ZM60.7314 88.8271L61.2923 89.655L61.2979 89.6511L60.7314 88.8271ZM52.0514 73.1821H53.0514V72.1821H52.0514V73.1821ZM50.0914 73.1821H49.0914V74.1821H50.0914V73.1821ZM50.0914 72.5521V71.5521H49.0914V72.5521H50.0914ZM58.5614 72.5521H59.5614V71.5521H58.5614V72.5521ZM58.8414 87.3221L57.9198 87.7102L57.9283 87.7304L57.9377 87.7502L58.8414 87.3221ZM61.6414 86.9021L62.4817 87.4442H62.4817L61.6414 86.9021ZM62.3414 73.1821H63.3414V72.1821H62.3414V73.1821ZM60.7314 73.1821H59.7314V74.1821H60.7314V73.1821ZM60.7314 72.5521V71.5521H59.7314V72.5521H60.7314ZM68.8514 72.5521H69.8514V71.5521H68.8514V72.5521ZM68.8514 88.5821H67.8514V89.5821H68.8514V88.5821ZM70.7764 88.5821H71.7764V87.5821H70.7764V88.5821ZM70.7764 88.2121H62.7964V90.2121H70.7764V88.2121ZM63.7853 89.0631L63.4003 86.5081L61.4226 86.8061L61.8076 89.3611L63.7853 89.0631ZM61.4829 86.2857C61.1746 87.0566 60.7313 87.6136 60.1649 88.0031L61.2979 89.6511C62.2249 89.0139 62.9016 88.1243 63.3399 87.0285L61.4829 86.2857ZM60.1706 87.9992C59.6893 88.3252 58.8415 88.5621 57.4764 88.5621V90.5621C59.0047 90.5621 60.3269 90.309 61.2923 89.655L60.1706 87.9992ZM57.4764 88.5621C55.8421 88.5621 54.7948 88.1254 54.1406 87.4206C53.4734 86.7017 53.0514 85.529 53.0514 83.7171H51.0514C51.0514 85.8018 51.5336 87.5517 52.6747 88.7811C53.8289 90.0246 55.494 90.5621 57.4764 90.5621V88.5621ZM53.0514 83.7171V73.1821H51.0514V83.7171H53.0514ZM52.0514 72.1821H50.0914V74.1821H52.0514V72.1821ZM51.0914 73.1821V72.5521H49.0914V73.1821H51.0914ZM50.0914 73.5521H58.5614V71.5521H50.0914V73.5521ZM57.5614 72.5521V84.5571H59.5614V72.5521H57.5614ZM57.5614 84.5571C57.5614 85.2756 57.5852 85.8925 57.6365 86.3991C57.6857 86.8852 57.767 87.3473 57.9198 87.7102L59.7631 86.934C59.7292 86.8535 59.6704 86.6332 59.6263 86.1976C59.5843 85.7825 59.5614 85.2386 59.5614 84.5571H57.5614ZM57.9377 87.7502C58.1242 88.144 58.4141 88.4733 58.8086 88.6938C59.1925 88.9083 59.6163 88.9871 60.0314 88.9871V86.9871C59.8632 86.9871 59.797 86.955 59.7842 86.9479C59.7779 86.9444 59.7754 86.942 59.7727 86.9391C59.7695 86.9355 59.759 86.9232 59.7452 86.894L57.9377 87.7502ZM60.0314 88.9871C61.1081 88.9871 61.9149 88.3228 62.4817 87.4442L60.8011 86.36C60.4346 86.9281 60.1681 86.9871 60.0314 86.9871V88.9871ZM62.4817 87.4442C63.092 86.4983 63.3414 85.2793 63.3414 83.8921H61.3414C61.3414 85.0716 61.1242 85.8593 60.8011 86.36L62.4817 87.4442ZM63.3414 83.8921V73.1821H61.3414V83.8921H63.3414ZM62.3414 72.1821H60.7314V74.1821H62.3414V72.1821ZM61.7314 73.1821V72.5521H59.7314V73.1821H61.7314ZM60.7314 73.5521H68.8514V71.5521H60.7314V73.5521ZM67.8514 72.5521V88.5821H69.8514V72.5521H67.8514ZM68.8514 89.5821H70.7764V87.5821H68.8514V89.5821ZM69.7764 88.5821V89.2121H71.7764V88.5821H69.7764ZM71.3528 62.9621V61.9621H70.3528V62.9621H71.3528ZM79.9278 62.9621H80.9278V61.9621H79.9278V62.9621ZM79.9278 88.5821H78.9278V89.5821H79.9278V88.5821ZM81.8878 88.5821H82.8878V87.5821H81.8878V88.5821ZM81.8878 89.2121V90.2121H82.8878V89.2121H81.8878ZM71.4928 89.2121H70.4928V90.2121H71.4928V89.2121ZM71.4928 88.5821V87.5821H70.4928V88.5821H71.4928ZM73.4178 88.5821V89.5821H74.4178V88.5821H73.4178ZM73.4178 63.5921H74.4178V62.5921H73.4178V63.5921ZM71.3528 63.5921H70.3528V64.5921H71.3528V63.5921ZM71.3528 63.9621H79.9278V61.9621H71.3528V63.9621ZM78.9278 62.9621V88.5821H80.9278V62.9621H78.9278ZM79.9278 89.5821H81.8878V87.5821H79.9278V89.5821ZM80.8878 88.5821V89.2121H82.8878V88.5821H80.8878ZM81.8878 88.2121H71.4928V90.2121H81.8878V88.2121ZM72.4928 89.2121V88.5821H70.4928V89.2121H72.4928ZM71.4928 89.5821H73.4178V87.5821H71.4928V89.5821ZM74.4178 88.5821V63.5921H72.4178V88.5821H74.4178ZM73.4178 62.5921H71.3528V64.5921H73.4178V62.5921ZM72.3528 63.5921V62.9621H70.3528V63.5921H72.3528ZM85.052 69.1921L84.2768 69.8238L84.2837 69.8322L84.2908 69.8406L85.052 69.1921ZM85.122 64.5371L84.4012 63.844L84.3941 63.8513L84.3872 63.8588L85.122 64.5371ZM90.407 64.4671L89.7288 65.2019L89.7365 65.2091L89.7445 65.2161L90.407 64.4671ZM90.442 69.2271L89.7212 68.534H89.7212L90.442 69.2271ZM82.427 72.5521V71.5521H81.427V72.5521H82.427ZM91.002 72.5521H92.002V71.5521H91.002V72.5521ZM91.002 88.5821H90.002V89.5821H91.002V88.5821ZM92.962 88.5821H93.962V87.5821H92.962V88.5821ZM92.962 89.2121V90.2121H93.962V89.2121H92.962ZM82.567 89.2121H81.567V90.2121H82.567V89.2121ZM82.567 88.5821V87.5821H81.567V88.5821H82.567ZM84.492 88.5821V89.5821H85.492V88.5821H84.492ZM84.492 73.1821H85.492V72.1821H84.492V73.1821ZM82.427 73.1821H81.427V74.1821H82.427V73.1821ZM87.712 69.1371C86.6213 69.1371 86.0817 68.8588 85.8133 68.5436L84.2908 69.8406C85.0957 70.7854 86.3295 71.1371 87.712 71.1371V69.1371ZM85.8273 68.5604C85.4805 68.1349 85.282 67.5863 85.282 66.8471H83.282C83.282 67.9746 83.5969 68.9893 84.2768 69.8238L85.8273 68.5604ZM85.282 66.8471C85.282 66.1298 85.4899 65.6129 85.8568 65.2154L84.3872 63.8588C83.6342 64.6746 83.282 65.6977 83.282 66.8471H85.282ZM85.8429 65.2302C86.1742 64.8856 86.7447 64.6271 87.747 64.6271V62.6271C86.416 62.6271 85.2365 62.9752 84.4012 63.844L85.8429 65.2302ZM87.747 64.6271C88.7661 64.6271 89.3711 64.8717 89.7288 65.2019L91.0853 63.7323C90.2297 62.9425 89.0613 62.6271 87.747 62.6271V64.6271ZM89.7445 65.2161C90.0819 65.5146 90.317 65.9897 90.317 66.8121H92.317C92.317 65.5812 91.9456 64.493 91.0696 63.7181L89.7445 65.2161ZM90.317 66.8121C90.317 67.6099 90.0918 68.1486 89.7212 68.534L91.1629 69.9202C91.9589 69.0923 92.317 68.0209 92.317 66.8121H90.317ZM89.7212 68.534C89.3997 68.8683 88.8047 69.1371 87.712 69.1371V71.1371C89.0927 71.1371 90.3177 70.7992 91.1629 69.9202L89.7212 68.534ZM82.427 73.5521H91.002V71.5521H82.427V73.5521ZM90.002 72.5521V88.5821H92.002V72.5521H90.002ZM91.002 89.5821H92.962V87.5821H91.002V89.5821ZM91.962 88.5821V89.2121H93.962V88.5821H91.962ZM92.962 88.2121H82.567V90.2121H92.962V88.2121ZM83.567 89.2121V88.5821H81.567V89.2121H83.567ZM82.567 89.5821H84.492V87.5821H82.567V89.5821ZM85.492 88.5821V73.1821H83.492V88.5821H85.492ZM84.492 72.1821H82.427V74.1821H84.492V72.1821ZM83.427 73.1821V72.5521H81.427V73.1821H83.427ZM103.09 80.9871V81.9871H104.09V80.9871H103.09ZM102.705 73.8471L101.748 74.1371L101.754 74.1547L101.76 74.1722L102.705 73.8471ZM100.15 73.0421L100.691 73.8833L100.698 73.8788L100.705 73.8741L100.15 73.0421ZM99.8704 75.1071L98.9275 75.4399L99.1629 76.1071H99.8704V75.1071ZM100.745 75.1071L101.68 74.7511L101.435 74.1071H100.745V75.1071ZM100.15 78.6771L100.794 79.4428L100.802 79.4354L100.811 79.4278L100.15 78.6771ZM107.99 73.6371L107.317 74.3763L107.326 74.3841L107.334 74.3917L107.99 73.6371ZM112.015 84.1371L112.082 83.1393L111.076 83.0722L111.017 84.0789L112.015 84.1371ZM112.54 84.1721L113.539 84.2175L113.584 83.2394L112.607 83.1743L112.54 84.1721ZM111.385 88.4071L112.137 89.0672L111.385 88.4071ZM103.23 86.9721L104.202 86.7357L103.393 83.4083L102.284 86.6484L103.23 86.9721ZM101.865 88.9321L102.435 89.7543L101.865 88.9321ZM95.9854 81.9321L96.4066 82.8391L96.4135 82.8358L95.9854 81.9321ZM100.85 87.6371L99.9018 87.9533L99.911 87.9812L99.922 88.0085L100.85 87.6371ZM102.6 87.2871L101.72 86.813L101.717 86.8193L101.713 86.8257L102.6 87.2871ZM103.09 81.5471H104.09V80.5471H103.09V81.5471ZM102.075 81.9871H103.09V79.9871H102.075V81.9871ZM104.09 80.9871V78.2921H102.09V80.9871H104.09ZM104.09 78.2921C104.09 76.097 103.97 74.4504 103.651 73.522L101.76 74.1722C101.954 74.7371 102.09 76.0538 102.09 78.2921H104.09ZM103.662 73.5571C103.507 73.0446 103.245 72.5625 102.817 72.2095C102.377 71.8465 101.849 71.6921 101.305 71.6921V73.6921C101.462 73.6921 101.517 73.7302 101.544 73.7522C101.583 73.7841 101.67 73.8796 101.748 74.1371L103.662 73.5571ZM101.305 71.6921C100.688 71.6921 100.11 71.8674 99.5957 72.21L100.705 73.8741C100.891 73.7501 101.083 73.6921 101.305 73.6921V71.6921ZM99.6097 72.2009C98.9894 72.5996 98.6604 73.224 98.6604 73.9521H100.66C100.66 73.9216 100.664 73.9051 100.665 73.8993C100.666 73.8942 100.666 73.8959 100.663 73.9012C100.661 73.9065 100.658 73.9089 100.659 73.9076C100.661 73.9058 100.67 73.8969 100.691 73.8833L99.6097 72.2009ZM98.6604 73.9521C98.6604 74.4522 98.7544 74.9498 98.9275 75.4399L100.813 74.7743C100.706 74.4711 100.66 74.1987 100.66 73.9521H98.6604ZM99.8704 76.1071H100.745V74.1071H99.8704V76.1071ZM99.811 75.4631C99.9425 75.8084 100.025 76.2754 100.025 76.8921H102.025C102.025 76.1088 101.922 75.3858 101.68 74.7511L99.811 75.4631ZM100.025 76.8921C100.025 77.2373 99.8929 77.5717 99.4898 77.9264L100.811 79.4278C101.575 78.7558 102.025 77.9002 102.025 76.8921H100.025ZM99.5072 77.9114C99.1329 78.2258 98.6374 78.4121 97.9454 78.4121V80.4121C99.0268 80.4121 100.001 80.1084 100.794 79.4428L99.5072 77.9114ZM97.9454 78.4121C97.0875 78.4121 96.6294 78.2047 96.3824 77.9663C96.142 77.7343 95.9354 77.3121 95.9354 76.5071H93.9354C93.9354 77.6388 94.2305 78.669 94.9935 79.4054C95.7499 80.1354 96.7967 80.4121 97.9454 80.4121V78.4121ZM95.9354 76.5071C95.9354 75.4201 96.363 74.6748 97.2714 74.1402C98.2623 73.557 99.8775 73.2021 102.25 73.2021V71.2021C99.7467 71.2021 97.7044 71.5647 96.257 72.4165C94.7271 73.3169 93.9354 74.7241 93.9354 76.5071H95.9354ZM102.25 73.2021C104.984 73.2021 106.561 73.6877 107.317 74.3763L108.664 72.8979C107.32 71.6731 105.07 71.2021 102.25 71.2021V73.2021ZM107.334 74.3917C108.069 75.0309 108.6 76.3766 108.6 78.8171H110.6C110.6 76.2176 110.058 74.11 108.647 72.8825L107.334 74.3917ZM108.6 78.8171V85.9221H110.6V78.8171H108.6ZM108.6 85.9221C108.6 86.5889 108.688 87.2486 108.981 87.7742C109.136 88.0521 109.356 88.3062 109.658 88.4867C109.962 88.668 110.292 88.7421 110.615 88.7421V86.7421C110.6 86.7421 110.635 86.7404 110.684 86.77C110.733 86.7988 110.742 86.8255 110.728 86.8C110.682 86.7189 110.6 86.4686 110.6 85.9221H108.6ZM110.615 88.7421C111.654 88.7421 112.215 87.9174 112.493 87.2029C112.783 86.454 112.942 85.4272 113.014 84.1953L111.017 84.0789C110.949 85.2503 110.804 86.026 110.628 86.4788C110.439 86.9659 110.37 86.7421 110.615 86.7421V88.7421ZM111.949 85.1349L112.474 85.1699L112.607 83.1743L112.082 83.1393L111.949 85.1349ZM111.541 84.1267C111.45 86.1451 111.07 87.251 110.634 87.747L112.137 89.0672C113.054 88.0232 113.444 86.3058 113.539 84.2175L111.541 84.1267ZM110.634 87.747C110.226 88.2115 109.458 88.5621 108.06 88.5621V90.5621C109.742 90.5621 111.191 90.1427 112.137 89.0672L110.634 87.747ZM108.06 88.5621C106.745 88.5621 105.828 88.3564 105.226 88.0333C104.663 87.7316 104.343 87.3142 104.202 86.7357L102.259 87.2085C102.538 88.3566 103.233 89.2342 104.28 89.7959C105.288 90.3362 106.576 90.5621 108.06 90.5621V88.5621ZM102.284 86.6484C102.031 87.3879 101.685 87.8409 101.296 88.1099L102.435 89.7543C103.259 89.1833 103.823 88.3296 104.177 87.2958L102.284 86.6484ZM101.296 88.1099C100.928 88.3646 100.278 88.5621 99.2054 88.5621V90.5621C100.466 90.5621 101.589 90.3396 102.435 89.7543L101.296 88.1099ZM99.2054 88.5621C97.5895 88.5621 96.5632 88.2277 95.9534 87.7292C95.3821 87.2621 95.0254 86.5255 95.0254 85.3271H93.0254C93.0254 86.952 93.5321 88.3329 94.6875 89.2775C95.8043 90.1906 97.3681 90.5621 99.2054 90.5621V88.5621ZM95.0254 85.3271C95.0254 84.6281 95.1631 84.1141 95.3815 83.7358C95.5947 83.3664 95.9198 83.0651 96.4065 82.8391L95.5643 81.0251C94.7444 81.4058 94.0895 81.9736 93.6494 82.7359C93.2144 83.4893 93.0254 84.3695 93.0254 85.3271H95.0254ZM96.4135 82.8358C97.5391 82.3026 99.3879 81.9871 102.075 81.9871V79.9871C99.3029 79.9871 97.0917 80.3015 95.5574 81.0284L96.4135 82.8358ZM99.6754 85.2921C99.6754 85.9118 99.6902 86.4377 99.722 86.8628C99.752 87.2653 99.8018 87.6533 99.9018 87.9533L101.799 87.3209C101.782 87.2709 101.745 87.0931 101.716 86.7139C101.69 86.3574 101.675 85.8858 101.675 85.2921H99.6754ZM99.922 88.0085C100.045 88.3165 100.245 88.6209 100.558 88.8446C100.876 89.0721 101.237 89.1621 101.585 89.1621V87.1621C101.581 87.1621 101.597 87.1616 101.625 87.1699C101.654 87.1786 101.688 87.194 101.72 87.2171C101.789 87.2658 101.796 87.3077 101.779 87.2657L99.922 88.0085ZM101.585 89.1621C102.554 89.1621 103.147 88.4031 103.488 87.7485L101.713 86.8257C101.595 87.0531 101.505 87.1524 101.466 87.1859C101.45 87.1996 101.454 87.1925 101.48 87.1821C101.507 87.1708 101.545 87.1621 101.585 87.1621V89.1621ZM103.481 87.7612C103.917 86.9521 104.09 85.9383 104.09 84.8021H102.09C102.09 85.7659 101.938 86.4087 101.72 86.813L103.481 87.7612ZM104.09 84.8021V81.5471H102.09V84.8021H104.09ZM103.09 80.5471H102.845V82.5471H103.09V80.5471ZM102.845 80.5471C101.84 80.5471 100.965 80.9382 100.392 81.7803C99.8646 82.5536 99.6754 83.5881 99.6754 84.7321H101.675C101.675 83.7528 101.848 83.1947 102.044 82.9064C102.194 82.6868 102.404 82.5471 102.845 82.5471V80.5471ZM99.6754 84.7321V85.2921H101.675V84.7321H99.6754Z" fill="#0E4B69"/>
<path d="M52.3922 101.712H61.7372V102.377H59.8122V125.547H61.7372V126.212H51.0622V125.547H52.9872V103.672H52.8472L47.5972 126.212H43.2222L37.0622 103.567H36.9222V125.547H38.8472V126.212H34.0872V125.547H36.0122V102.377H34.0872V101.712H43.5372L48.1922 119.737L52.3922 101.712ZM71.3567 117.987H72.3717V115.292C72.3717 113.075 72.2434 111.594 71.9867 110.847C71.7534 110.077 71.2867 109.692 70.5867 109.692C70.1667 109.692 69.7817 109.809 69.4317 110.042C69.105 110.252 68.9417 110.555 68.9417 110.952C68.9417 111.325 69.0117 111.71 69.1517 112.107H70.0267C70.2134 112.597 70.3067 113.192 70.3067 113.892C70.3067 114.569 70.015 115.164 69.4317 115.677C68.8484 116.167 68.1134 116.412 67.2267 116.412C65.22 116.412 64.2167 115.444 64.2167 113.507C64.2167 110.637 66.655 109.202 71.5317 109.202C74.3084 109.202 76.2217 109.68 77.2717 110.637C78.345 111.57 78.8817 113.297 78.8817 115.817V122.922C78.8817 124.135 79.22 124.742 79.8967 124.742C80.69 124.742 81.1567 123.54 81.2967 121.137L81.8217 121.172C81.7284 123.225 81.3434 124.637 80.6667 125.407C79.99 126.177 78.8817 126.562 77.3417 126.562C74.5417 126.562 72.9317 125.699 72.5117 123.972C72.2084 124.859 71.7534 125.512 71.1467 125.932C70.54 126.352 69.6534 126.562 68.4867 126.562C65.0334 126.562 63.3067 125.15 63.3067 122.327C63.3067 120.67 63.96 119.539 65.2667 118.932C66.5967 118.302 68.6267 117.987 71.3567 117.987ZM69.9567 122.292C69.9567 123.505 70.015 124.287 70.1317 124.637C70.2717 124.987 70.5167 125.162 70.8667 125.162C71.24 125.162 71.5784 124.87 71.8817 124.287C72.2084 123.68 72.3717 122.852 72.3717 121.802V118.547H72.1267C70.68 118.547 69.9567 119.609 69.9567 121.732V122.292ZM83.403 121.207V110.182H81.478V109.552H83.403V105.037L89.913 103.427V109.552H94.463V110.182H89.913V121.977C89.913 123.074 90.018 123.879 90.228 124.392C90.4613 124.905 90.928 125.162 91.628 125.162C92.328 125.162 92.9346 124.812 93.448 124.112C93.9846 123.412 94.3346 122.455 94.498 121.242L95.093 121.312C94.9063 122.922 94.393 124.205 93.553 125.162C92.713 126.095 91.3246 126.562 89.388 126.562C87.4513 126.562 85.9696 126.177 84.943 125.407C83.9163 124.637 83.403 123.237 83.403 121.207ZM94.7356 110.182V109.552H105.201V110.182H102.996L107.196 121.802L110.976 110.182H108.631V109.552H113.356V110.182H111.816L106.636 126.212H102.646L96.1706 110.182H94.7356ZM118.859 107.137C117.622 107.137 116.735 106.822 116.199 106.192C115.685 105.562 115.429 104.78 115.429 103.847C115.429 102.914 115.709 102.144 116.269 101.537C116.852 100.93 117.727 100.627 118.894 100.627C120.06 100.627 120.947 100.907 121.554 101.467C122.16 102.004 122.464 102.785 122.464 103.812C122.464 104.815 122.172 105.62 121.589 106.227C121.005 106.834 120.095 107.137 118.859 107.137ZM113.574 109.552H122.149V125.582H124.109V126.212H113.714V125.582H115.639V110.182H113.574V109.552ZM129.967 107.137C128.73 107.137 127.844 106.822 127.307 106.192C126.794 105.562 126.537 104.78 126.537 103.847C126.537 102.914 126.817 102.144 127.377 101.537C127.96 100.93 128.835 100.627 130.002 100.627C131.169 100.627 132.055 100.907 132.662 101.467C133.269 102.004 133.572 102.785 133.572 103.812C133.572 104.815 133.28 105.62 132.697 106.227C132.114 106.834 131.204 107.137 129.967 107.137ZM124.682 109.552H133.257V125.582H135.217V126.212H124.822V125.582H126.747V110.182H124.682V109.552ZM136.735 126.562V120.297H137.155C137.762 122.327 138.579 123.75 139.605 124.567C140.632 125.384 141.915 125.792 143.455 125.792C145.835 125.792 147.025 125.034 147.025 123.517C147.025 122.864 146.734 122.374 146.15 122.047C145.24 121.534 144.074 121.137 142.65 120.857C141.064 120.437 139.734 119.877 138.66 119.177C137.377 118.337 136.735 117.007 136.735 115.187C136.735 113.367 137.295 111.92 138.415 110.847C139.535 109.75 141.029 109.202 142.895 109.202C144.039 109.202 145.217 109.47 146.43 110.007C146.874 110.194 147.212 110.287 147.445 110.287C147.679 110.287 147.877 110.205 148.04 110.042C148.204 109.879 148.402 109.575 148.635 109.132H149.02V114.487H148.6C147.41 111.454 145.567 109.937 143.07 109.937C141.974 109.937 141.157 110.135 140.62 110.532C140.084 110.905 139.815 111.384 139.815 111.967C139.815 112.317 139.897 112.597 140.06 112.807C140.224 112.994 140.352 113.134 140.445 113.227C140.539 113.32 140.69 113.425 140.9 113.542C141.11 113.635 141.285 113.717 141.425 113.787C141.565 113.834 141.775 113.904 142.055 113.997C142.359 114.09 142.58 114.149 142.72 114.172C144.307 114.569 145.45 114.919 146.15 115.222C146.85 115.502 147.515 115.852 148.145 116.272C149.429 117.159 150.07 118.594 150.07 120.577C150.07 122.537 149.487 124.03 148.32 125.057C147.154 126.06 145.555 126.562 143.525 126.562C142.079 126.562 140.679 126.224 139.325 125.547C139.045 125.36 138.824 125.267 138.66 125.267C138.147 125.267 137.645 125.699 137.155 126.562H136.735ZM151.106 99.9621H159.541V112.772C159.914 111.699 160.486 110.835 161.256 110.182C162.026 109.529 163.193 109.202 164.756 109.202C168.373 109.202 170.181 111.15 170.181 115.047V125.582H172.141V126.212H162.236V125.582H163.671V114.207C163.671 112.807 163.578 111.909 163.391 111.512C163.204 111.092 162.866 110.882 162.376 110.882C161.629 110.882 160.964 111.372 160.381 112.352C159.821 113.332 159.541 114.522 159.541 115.922V125.582H161.046V126.212H151.106V125.582H153.031V100.592H151.106V99.9621ZM170.755 110.182V109.552H180.905V110.182H179.015L182.83 121.802L186.89 110.182H184.545V109.552H189.48V110.182H187.73L181.185 129.047C180.415 131.24 179.552 132.769 178.595 133.632C177.639 134.519 176.472 134.962 175.095 134.962C173.719 134.962 172.634 134.647 171.84 134.017C171.047 133.387 170.65 132.582 170.65 131.602C170.65 130.622 170.907 129.875 171.42 129.362C171.934 128.849 172.61 128.592 173.45 128.592C175.387 128.592 176.355 129.397 176.355 131.007C176.355 131.357 176.285 131.777 176.145 132.267H174.92C174.734 132.804 174.71 133.247 174.85 133.597C174.99 133.947 175.305 134.122 175.795 134.122C176.752 134.122 177.604 133.644 178.35 132.687C179.097 131.754 179.809 130.319 180.485 128.382L181.255 126.212H178.175L172.19 110.182H170.755ZM189.628 109.552H198.063V112.772C198.437 111.699 199.008 110.835 199.778 110.182C200.548 109.529 201.715 109.202 203.278 109.202C206.895 109.202 208.703 111.15 208.703 115.047V125.582H210.663V126.212H200.758V125.582H202.193V114.207C202.193 112.807 202.1 111.909 201.913 111.512C201.727 111.092 201.388 110.882 200.898 110.882C200.152 110.882 199.487 111.372 198.903 112.352C198.343 113.332 198.063 114.522 198.063 115.922V125.582H199.568V126.212H189.628V125.582H191.553V110.182H189.628V109.552ZM219.526 117.987H220.541V115.292C220.541 113.075 220.412 111.594 220.156 110.847C219.922 110.077 219.456 109.692 218.756 109.692C218.336 109.692 217.951 109.809 217.601 110.042C217.274 110.252 217.111 110.555 217.111 110.952C217.111 111.325 217.181 111.71 217.321 112.107H218.196C218.382 112.597 218.476 113.192 218.476 113.892C218.476 114.569 218.184 115.164 217.601 115.677C217.017 116.167 216.282 116.412 215.396 116.412C213.389 116.412 212.386 115.444 212.386 113.507C212.386 110.637 214.824 109.202 219.701 109.202C222.477 109.202 224.391 109.68 225.441 110.637C226.514 111.57 227.051 113.297 227.051 115.817V122.922C227.051 124.135 227.389 124.742 228.066 124.742C228.859 124.742 229.326 123.54 229.466 121.137L229.991 121.172C229.897 123.225 229.512 124.637 228.836 125.407C228.159 126.177 227.051 126.562 225.511 126.562C222.711 126.562 221.101 125.699 220.681 123.972C220.377 124.859 219.922 125.512 219.316 125.932C218.709 126.352 217.822 126.562 216.656 126.562C213.202 126.562 211.476 125.15 211.476 122.327C211.476 120.67 212.129 119.539 213.436 118.932C214.766 118.302 216.796 117.987 219.526 117.987ZM218.126 122.292C218.126 123.505 218.184 124.287 218.301 124.637C218.441 124.987 218.686 125.162 219.036 125.162C219.409 125.162 219.747 124.87 220.051 124.287C220.377 123.68 220.541 122.852 220.541 121.802V118.547H220.296C218.849 118.547 218.126 119.609 218.126 121.732V122.292Z" fill="#EEF7FB"/>
<path d="M52.3922 101.712V100.712H51.5984L51.4182 101.485L52.3922 101.712ZM61.7372 101.712H62.7372V100.712H61.7372V101.712ZM61.7372 102.377V103.377H62.7372V102.377H61.7372ZM59.8122 102.377V101.377H58.8122V102.377H59.8122ZM59.8122 125.547H58.8122V126.547H59.8122V125.547ZM61.7372 125.547H62.7372V124.547H61.7372V125.547ZM61.7372 126.212V127.212H62.7372V126.212H61.7372ZM51.0622 126.212H50.0622V127.212H51.0622V126.212ZM51.0622 125.547V124.547H50.0622V125.547H51.0622ZM52.9872 125.547V126.547H53.9872V125.547H52.9872ZM52.9872 103.672H53.9872V102.672H52.9872V103.672ZM52.8472 103.672V102.672H52.0533L51.8732 103.445L52.8472 103.672ZM47.5972 126.212V127.212H48.391L48.5711 126.439L47.5972 126.212ZM43.2222 126.212L42.2572 126.475L42.4578 127.212H43.2222V126.212ZM37.0622 103.567L38.0271 103.305L37.8265 102.567H37.0622V103.567ZM36.9222 103.567V102.567H35.9222V103.567H36.9222ZM36.9222 125.547H35.9222V126.547H36.9222V125.547ZM38.8472 125.547H39.8472V124.547H38.8472V125.547ZM38.8472 126.212V127.212H39.8472V126.212H38.8472ZM34.0872 126.212H33.0872V127.212H34.0872V126.212ZM34.0872 125.547V124.547H33.0872V125.547H34.0872ZM36.0122 125.547V126.547H37.0122V125.547H36.0122ZM36.0122 102.377H37.0122V101.377H36.0122V102.377ZM34.0872 102.377H33.0872V103.377H34.0872V102.377ZM34.0872 101.712V100.712H33.0872V101.712H34.0872ZM43.5372 101.712L44.5054 101.462L44.3117 100.712H43.5372V101.712ZM48.1922 119.737L47.2239 119.987L49.1661 119.964L48.1922 119.737ZM52.3922 102.712H61.7372V100.712H52.3922V102.712ZM60.7372 101.712V102.377H62.7372V101.712H60.7372ZM61.7372 101.377H59.8122V103.377H61.7372V101.377ZM58.8122 102.377V125.547H60.8122V102.377H58.8122ZM59.8122 126.547H61.7372V124.547H59.8122V126.547ZM60.7372 125.547V126.212H62.7372V125.547H60.7372ZM61.7372 125.212H51.0622V127.212H61.7372V125.212ZM52.0622 126.212V125.547H50.0622V126.212H52.0622ZM51.0622 126.547H52.9872V124.547H51.0622V126.547ZM53.9872 125.547V103.672H51.9872V125.547H53.9872ZM52.9872 102.672H52.8472V104.672H52.9872V102.672ZM51.8732 103.445L46.6232 125.985L48.5711 126.439L53.8211 103.899L51.8732 103.445ZM47.5972 125.212H43.2222V127.212H47.5972V125.212ZM44.1871 125.95L38.0271 103.305L36.0972 103.83L42.2572 126.475L44.1871 125.95ZM37.0622 102.567H36.9222V104.567H37.0622V102.567ZM35.9222 103.567V125.547H37.9222V103.567H35.9222ZM36.9222 126.547H38.8472V124.547H36.9222V126.547ZM37.8472 125.547V126.212H39.8472V125.547H37.8472ZM38.8472 125.212H34.0872V127.212H38.8472V125.212ZM35.0872 126.212V125.547H33.0872V126.212H35.0872ZM34.0872 126.547H36.0122V124.547H34.0872V126.547ZM37.0122 125.547V102.377H35.0122V125.547H37.0122ZM36.0122 101.377H34.0872V103.377H36.0122V101.377ZM35.0872 102.377V101.712H33.0872V102.377H35.0872ZM34.0872 102.712H43.5372V100.712H34.0872V102.712ZM42.5689 101.962L47.2239 119.987L49.1604 119.487L44.5054 101.462L42.5689 101.962ZM49.1661 119.964L53.3661 101.939L51.4182 101.485L47.2182 119.51L49.1661 119.964ZM72.3717 117.987V118.987H73.3717V117.987H72.3717ZM71.9867 110.847L71.0297 111.137L71.035 111.155L71.041 111.172L71.9867 110.847ZM69.4317 110.042L69.9724 110.883L69.9795 110.879L69.9864 110.874L69.4317 110.042ZM69.1517 112.107L68.2087 112.44L68.4442 113.107H69.1517V112.107ZM70.0267 112.107L70.9612 111.751L70.7158 111.107H70.0267V112.107ZM69.4317 115.677L70.0749 116.443L70.0837 116.435L70.0923 116.428L69.4317 115.677ZM77.2717 110.637L76.5982 111.376L76.6068 111.384L76.6155 111.392L77.2717 110.637ZM81.2967 121.137L81.3632 120.139L80.357 120.072L80.2984 121.079L81.2967 121.137ZM81.8217 121.172L82.8207 121.218L82.8651 120.239L81.8882 120.174L81.8217 121.172ZM80.6667 125.407L81.4179 126.067L80.6667 125.407ZM72.5117 123.972L73.4834 123.736L72.674 120.408L71.5655 123.648L72.5117 123.972ZM71.1467 125.932L71.7159 126.754L71.1467 125.932ZM65.2667 118.932L65.6878 119.839L65.6948 119.836L65.2667 118.932ZM70.1317 124.637L69.183 124.953L69.1923 124.981L69.2032 125.008L70.1317 124.637ZM71.8817 124.287L71.0012 123.813L70.9978 123.819L70.9945 123.826L71.8817 124.287ZM72.3717 118.547H73.3717V117.547H72.3717V118.547ZM71.3567 118.987H72.3717V116.987H71.3567V118.987ZM73.3717 117.987V115.292H71.3717V117.987H73.3717ZM73.3717 115.292C73.3717 113.097 73.2515 111.45 72.9324 110.522L71.041 111.172C71.2352 111.737 71.3717 113.054 71.3717 115.292H73.3717ZM72.9437 110.557C72.7884 110.045 72.526 109.563 72.0981 109.209C71.6581 108.846 71.1305 108.692 70.5867 108.692V110.692C70.7428 110.692 70.7987 110.73 70.8253 110.752C70.864 110.784 70.9516 110.88 71.0297 111.137L72.9437 110.557ZM70.5867 108.692C69.9689 108.692 69.391 108.867 68.877 109.21L69.9864 110.874C70.1724 110.75 70.3644 110.692 70.5867 110.692V108.692ZM68.8909 109.201C68.2707 109.6 67.9417 110.224 67.9417 110.952H69.9417C69.9417 110.922 69.9448 110.905 69.9462 110.899C69.9474 110.894 69.9475 110.896 69.9447 110.901C69.9418 110.907 69.9394 110.909 69.9407 110.908C69.9424 110.906 69.9512 110.897 69.9724 110.883L68.8909 109.201ZM67.9417 110.952C67.9417 111.452 68.0357 111.95 68.2087 112.44L70.0947 111.774C69.9877 111.471 69.9417 111.199 69.9417 110.952H67.9417ZM69.1517 113.107H70.0267V111.107H69.1517V113.107ZM69.0922 112.463C69.2237 112.808 69.3067 113.275 69.3067 113.892H71.3067C71.3067 113.109 71.203 112.386 70.9612 111.751L69.0922 112.463ZM69.3067 113.892C69.3067 114.237 69.1741 114.572 68.7711 114.926L70.0923 116.428C70.8559 115.756 71.3067 114.9 71.3067 113.892H69.3067ZM68.7885 114.911C68.4142 115.226 67.9187 115.412 67.2267 115.412V117.412C68.308 117.412 69.2826 117.108 70.0749 116.443L68.7885 114.911ZM67.2267 115.412C66.3688 115.412 65.9106 115.205 65.6636 114.966C65.4233 114.734 65.2167 114.312 65.2167 113.507H63.2167C63.2167 114.639 63.5118 115.669 64.2747 116.405C65.0311 117.135 66.0779 117.412 67.2267 117.412V115.412ZM65.2167 113.507C65.2167 112.42 65.6442 111.675 66.5526 111.14C67.5435 110.557 69.1587 110.202 71.5317 110.202V108.202C69.028 108.202 66.9857 108.565 65.5382 109.417C64.0083 110.317 63.2167 111.724 63.2167 113.507H65.2167ZM71.5317 110.202C74.2653 110.202 75.8425 110.688 76.5982 111.376L77.9452 109.898C76.6009 108.673 74.3514 108.202 71.5317 108.202V110.202ZM76.6155 111.392C77.3506 112.031 77.8817 113.377 77.8817 115.817H79.8817C79.8817 113.218 79.3395 111.11 77.9279 109.882L76.6155 111.392ZM77.8817 115.817V122.922H79.8817V115.817H77.8817ZM77.8817 122.922C77.8817 123.589 77.969 124.249 78.2621 124.774C78.4171 125.052 78.6376 125.306 78.9396 125.487C79.2429 125.668 79.5734 125.742 79.8967 125.742V123.742C79.8816 123.742 79.9161 123.74 79.9657 123.77C80.0139 123.799 80.023 123.825 80.0088 123.8C79.9636 123.719 79.8817 123.469 79.8817 122.922H77.8817ZM79.8967 125.742C80.9351 125.742 81.4964 124.917 81.7739 124.203C82.0647 123.454 82.2232 122.427 82.295 121.195L80.2984 121.079C80.2301 122.25 80.0854 123.026 79.9095 123.479C79.7204 123.966 79.6517 123.742 79.8967 123.742V125.742ZM81.2302 122.135L81.7552 122.17L81.8882 120.174L81.3632 120.139L81.2302 122.135ZM80.8227 121.127C80.731 123.145 80.3514 124.251 79.9155 124.747L81.4179 126.067C82.3353 125.023 82.7257 123.306 82.8207 121.218L80.8227 121.127ZM79.9155 124.747C79.5074 125.211 78.7397 125.562 77.3417 125.562V127.562C79.0237 127.562 80.4727 127.143 81.4179 126.067L79.9155 124.747ZM77.3417 125.562C76.0264 125.562 75.1092 125.356 74.5068 125.033C73.9442 124.732 73.6241 124.314 73.4834 123.736L71.54 124.208C71.8193 125.357 72.5142 126.234 73.5616 126.796C74.5691 127.336 75.8569 127.562 77.3417 127.562V125.562ZM71.5655 123.648C71.3125 124.388 70.966 124.841 70.5775 125.11L71.7159 126.754C72.5407 126.183 73.1042 125.33 73.4579 124.296L71.5655 123.648ZM70.5775 125.11C70.2096 125.365 69.559 125.562 68.4867 125.562V127.562C69.7477 127.562 70.8705 127.34 71.7159 126.754L70.5775 125.11ZM68.4867 125.562C66.8707 125.562 65.8445 125.228 65.2346 124.729C64.6634 124.262 64.3067 123.525 64.3067 122.327H62.3067C62.3067 123.952 62.8134 125.333 63.9687 126.278C65.0856 127.191 66.6493 127.562 68.4867 127.562V125.562ZM64.3067 122.327C64.3067 121.628 64.4444 121.114 64.6627 120.736C64.876 120.366 65.2011 120.065 65.6878 119.839L64.8456 118.025C64.0256 118.406 63.3707 118.974 62.9307 119.736C62.4957 120.489 62.3067 121.369 62.3067 122.327H64.3067ZM65.6948 119.836C66.8204 119.303 68.6692 118.987 71.3567 118.987V116.987C68.5842 116.987 66.373 117.302 64.8386 118.028L65.6948 119.836ZM68.9567 122.292C68.9567 122.912 68.9715 123.438 69.0032 123.863C69.0332 124.265 69.083 124.653 69.183 124.953L71.0804 124.321C71.0637 124.271 71.026 124.093 70.9977 123.714C70.9711 123.357 70.9567 122.886 70.9567 122.292H68.9567ZM69.2032 125.008C69.3264 125.316 69.526 125.621 69.8392 125.845C70.1577 126.072 70.5182 126.162 70.8667 126.162V124.162C70.8626 124.162 70.8779 124.162 70.906 124.17C70.9355 124.179 70.9693 124.194 71.0017 124.217C71.0698 124.266 71.077 124.308 71.0602 124.266L69.2032 125.008ZM70.8667 126.162C71.8353 126.162 72.4285 125.403 72.7689 124.748L70.9945 123.826C70.8762 124.053 70.7864 124.152 70.7475 124.186C70.7316 124.2 70.7355 124.192 70.7609 124.182C70.7886 124.171 70.826 124.162 70.8667 124.162V126.162ZM72.7622 124.761C73.1978 123.952 73.3717 122.938 73.3717 121.802H71.3717C71.3717 122.766 71.2189 123.409 71.0012 123.813L72.7622 124.761ZM73.3717 121.802V118.547H71.3717V121.802H73.3717ZM72.3717 117.547H72.1267V119.547H72.3717V117.547ZM72.1267 117.547C71.1213 117.547 70.2465 117.938 69.6728 118.78C69.1459 119.554 68.9567 120.588 68.9567 121.732H70.9567C70.9567 120.753 71.1292 120.195 71.3256 119.906C71.4752 119.687 71.6855 119.547 72.1267 119.547V117.547ZM68.9567 121.732V122.292H70.9567V121.732H68.9567ZM83.403 110.182H84.403V109.182H83.403V110.182ZM81.478 110.182H80.478V111.182H81.478V110.182ZM81.478 109.552V108.552H80.478V109.552H81.478ZM83.403 109.552V110.552H84.403V109.552H83.403ZM83.403 105.037L83.1629 104.066L82.403 104.254V105.037H83.403ZM89.913 103.427H90.913V102.15L89.6729 102.456L89.913 103.427ZM89.913 109.552H88.913V110.552H89.913V109.552ZM94.463 109.552H95.463V108.552H94.463V109.552ZM94.463 110.182V111.182H95.463V110.182H94.463ZM89.913 110.182V109.182H88.913V110.182H89.913ZM90.228 124.392L89.3024 124.771L89.3097 124.788L89.3176 124.806L90.228 124.392ZM93.448 124.112L92.6544 123.504L92.6479 123.512L92.6416 123.521L93.448 124.112ZM94.498 121.242L94.6148 120.249L93.6381 120.134L93.5069 121.109L94.498 121.242ZM95.093 121.312L96.0863 121.427L96.2013 120.436L95.2098 120.319L95.093 121.312ZM93.553 125.162L94.2963 125.831L94.3044 125.822L93.553 125.162ZM84.943 125.407L85.543 124.607L84.943 125.407ZM84.403 121.207V110.182H82.403V121.207H84.403ZM83.403 109.182H81.478V111.182H83.403V109.182ZM82.478 110.182V109.552H80.478V110.182H82.478ZM81.478 110.552H83.403V108.552H81.478V110.552ZM84.403 109.552V105.037H82.403V109.552H84.403ZM83.6431 106.008L90.1531 104.398L89.6729 102.456L83.1629 104.066L83.6431 106.008ZM88.913 103.427V109.552H90.913V103.427H88.913ZM89.913 110.552H94.463V108.552H89.913V110.552ZM93.463 109.552V110.182H95.463V109.552H93.463ZM94.463 109.182H89.913V111.182H94.463V109.182ZM88.913 110.182V121.977H90.913V110.182H88.913ZM88.913 121.977C88.913 123.102 89.0156 124.069 89.3024 124.771L91.1535 124.013C91.0204 123.688 90.913 123.046 90.913 121.977H88.913ZM89.3176 124.806C89.5179 125.247 89.8373 125.607 90.2711 125.846C90.6912 126.077 91.1607 126.162 91.628 126.162V124.162C91.3952 124.162 91.2814 124.119 91.2349 124.093C91.202 124.075 91.1714 124.051 91.1383 123.978L89.3176 124.806ZM91.628 126.162C92.7232 126.162 93.6032 125.591 94.2544 124.703L92.6416 123.521C92.2661 124.033 91.9327 124.162 91.628 124.162V126.162ZM94.2416 124.721C94.9177 123.839 95.311 122.698 95.489 121.376L93.5069 121.109C93.3583 122.213 93.0516 122.986 92.6544 123.504L94.2416 124.721ZM94.3811 122.235L94.9761 122.305L95.2098 120.319L94.6148 120.249L94.3811 122.235ZM94.0996 121.197C93.93 122.66 93.475 123.735 92.8015 124.502L94.3044 125.822C95.311 124.676 95.8826 123.184 96.0863 121.427L94.0996 121.197ZM92.8097 124.493C92.2418 125.124 91.1939 125.562 89.388 125.562V127.562C91.4554 127.562 93.1841 127.067 94.2963 125.831L92.8097 124.493ZM89.388 125.562C87.5632 125.562 86.3284 125.196 85.543 124.607L84.343 126.207C85.6109 127.158 87.3394 127.562 89.388 127.562V125.562ZM85.543 124.607C84.8867 124.115 84.403 123.108 84.403 121.207H82.403C82.403 123.366 82.946 125.159 84.343 126.207L85.543 124.607ZM94.7356 110.182H93.7356V111.182H94.7356V110.182ZM94.7356 109.552V108.552H93.7356V109.552H94.7356ZM105.201 109.552H106.201V108.552H105.201V109.552ZM105.201 110.182V111.182H106.201V110.182H105.201ZM102.996 110.182V109.182H101.571L102.055 110.522L102.996 110.182ZM107.196 121.802L106.255 122.142L107.245 124.882L108.147 122.111L107.196 121.802ZM110.976 110.182L111.927 110.491L112.352 109.182H110.976V110.182ZM108.631 110.182H107.631V111.182H108.631V110.182ZM108.631 109.552V108.552H107.631V109.552H108.631ZM113.356 109.552H114.356V108.552H113.356V109.552ZM113.356 110.182V111.182H114.356V110.182H113.356ZM111.816 110.182V109.182H111.088L110.864 109.875L111.816 110.182ZM106.636 126.212V127.212H107.363L107.587 126.52L106.636 126.212ZM102.646 126.212L101.718 126.587L101.971 127.212H102.646V126.212ZM96.1706 110.182L97.0978 109.808L96.8452 109.182H96.1706V110.182ZM95.7356 110.182V109.552H93.7356V110.182H95.7356ZM94.7356 110.552H105.201V108.552H94.7356V110.552ZM104.201 109.552V110.182H106.201V109.552H104.201ZM105.201 109.182H102.996V111.182H105.201V109.182ZM102.055 110.522L106.255 122.142L108.136 121.462L103.936 109.842L102.055 110.522ZM108.147 122.111L111.927 110.491L110.025 109.873L106.245 121.493L108.147 122.111ZM110.976 109.182H108.631V111.182H110.976V109.182ZM109.631 110.182V109.552H107.631V110.182H109.631ZM108.631 110.552H113.356V108.552H108.631V110.552ZM112.356 109.552V110.182H114.356V109.552H112.356ZM113.356 109.182H111.816V111.182H113.356V109.182ZM110.864 109.875L105.684 125.905L107.587 126.52L112.767 110.49L110.864 109.875ZM106.636 125.212H102.646V127.212H106.636V125.212ZM103.573 125.838L97.0978 109.808L95.2434 110.557L101.718 126.587L103.573 125.838ZM96.1706 109.182H94.7356V111.182H96.1706V109.182ZM116.199 106.192L115.423 106.824L115.43 106.832L115.437 106.841L116.199 106.192ZM116.269 101.537L115.548 100.844L115.541 100.851L115.534 100.859L116.269 101.537ZM121.554 101.467L120.875 102.202L120.883 102.209L120.891 102.216L121.554 101.467ZM121.589 106.227L120.868 105.534L121.589 106.227ZM113.574 109.552V108.552H112.574V109.552H113.574ZM122.149 109.552H123.149V108.552H122.149V109.552ZM122.149 125.582H121.149V126.582H122.149V125.582ZM124.109 125.582H125.109V124.582H124.109V125.582ZM124.109 126.212V127.212H125.109V126.212H124.109ZM113.714 126.212H112.714V127.212H113.714V126.212ZM113.714 125.582V124.582H112.714V125.582H113.714ZM115.639 125.582V126.582H116.639V125.582H115.639ZM115.639 110.182H116.639V109.182H115.639V110.182ZM113.574 110.182H112.574V111.182H113.574V110.182ZM118.859 106.137C117.768 106.137 117.228 105.859 116.96 105.544L115.437 106.841C116.242 107.785 117.476 108.137 118.859 108.137V106.137ZM116.974 105.56C116.627 105.135 116.429 104.586 116.429 103.847H114.429C114.429 104.975 114.743 105.989 115.423 106.824L116.974 105.56ZM116.429 103.847C116.429 103.13 116.636 102.613 117.003 102.215L115.534 100.859C114.781 101.675 114.429 102.698 114.429 103.847H116.429ZM116.989 102.23C117.321 101.886 117.891 101.627 118.894 101.627V99.6271C117.563 99.6271 116.383 99.9752 115.548 100.844L116.989 102.23ZM118.894 101.627C119.913 101.627 120.518 101.872 120.875 102.202L122.232 100.732C121.376 99.9425 120.208 99.6271 118.894 99.6271V101.627ZM120.891 102.216C121.228 102.515 121.464 102.99 121.464 103.812H123.464C123.464 102.581 123.092 101.493 122.216 100.718L120.891 102.216ZM121.464 103.812C121.464 104.61 121.238 105.149 120.868 105.534L122.309 106.92C123.105 106.092 123.464 105.021 123.464 103.812H121.464ZM120.868 105.534C120.546 105.868 119.951 106.137 118.859 106.137V108.137C120.239 108.137 121.464 107.799 122.309 106.92L120.868 105.534ZM113.574 110.552H122.149V108.552H113.574V110.552ZM121.149 109.552V125.582H123.149V109.552H121.149ZM122.149 126.582H124.109V124.582H122.149V126.582ZM123.109 125.582V126.212H125.109V125.582H123.109ZM124.109 125.212H113.714V127.212H124.109V125.212ZM114.714 126.212V125.582H112.714V126.212H114.714ZM113.714 126.582H115.639V124.582H113.714V126.582ZM116.639 125.582V110.182H114.639V125.582H116.639ZM115.639 109.182H113.574V111.182H115.639V109.182ZM114.574 110.182V109.552H112.574V110.182H114.574ZM127.307 106.192L126.532 106.824L126.539 106.832L126.546 106.841L127.307 106.192ZM127.377 101.537L126.656 100.844L126.649 100.851L126.642 100.859L127.377 101.537ZM132.662 101.467L131.984 102.202L131.991 102.209L131.999 102.216L132.662 101.467ZM132.697 106.227L131.976 105.534L132.697 106.227ZM124.682 109.552V108.552H123.682V109.552H124.682ZM133.257 109.552H134.257V108.552H133.257V109.552ZM133.257 125.582H132.257V126.582H133.257V125.582ZM135.217 125.582H136.217V124.582H135.217V125.582ZM135.217 126.212V127.212H136.217V126.212H135.217ZM124.822 126.212H123.822V127.212H124.822V126.212ZM124.822 125.582V124.582H123.822V125.582H124.822ZM126.747 125.582V126.582H127.747V125.582H126.747ZM126.747 110.182H127.747V109.182H126.747V110.182ZM124.682 110.182H123.682V111.182H124.682V110.182ZM129.967 106.137C128.876 106.137 128.337 105.859 128.068 105.544L126.546 106.841C127.351 107.785 128.584 108.137 129.967 108.137V106.137ZM128.082 105.56C127.735 105.135 127.537 104.586 127.537 103.847H125.537C125.537 104.975 125.852 105.989 126.532 106.824L128.082 105.56ZM127.537 103.847C127.537 103.13 127.745 102.613 128.112 102.215L126.642 100.859C125.889 101.675 125.537 102.698 125.537 103.847H127.537ZM128.098 102.23C128.429 101.886 129 101.627 130.002 101.627V99.6271C128.671 99.6271 127.491 99.9752 126.656 100.844L128.098 102.23ZM130.002 101.627C131.021 101.627 131.626 101.872 131.984 102.202L133.34 100.732C132.485 99.9425 131.316 99.6271 130.002 99.6271V101.627ZM131.999 102.216C132.337 102.515 132.572 102.99 132.572 103.812H134.572C134.572 102.581 134.2 101.493 133.325 100.718L131.999 102.216ZM132.572 103.812C132.572 104.61 132.347 105.149 131.976 105.534L133.418 106.92C134.214 106.092 134.572 105.021 134.572 103.812H132.572ZM131.976 105.534C131.655 105.868 131.06 106.137 129.967 106.137V108.137C131.348 108.137 132.573 107.799 133.418 106.92L131.976 105.534ZM124.682 110.552H133.257V108.552H124.682V110.552ZM132.257 109.552V125.582H134.257V109.552H132.257ZM133.257 126.582H135.217V124.582H133.257V126.582ZM134.217 125.582V126.212H136.217V125.582H134.217ZM135.217 125.212H124.822V127.212H135.217V125.212ZM125.822 126.212V125.582H123.822V126.212H125.822ZM124.822 126.582H126.747V124.582H124.822V126.582ZM127.747 125.582V110.182H125.747V125.582H127.747ZM126.747 109.182H124.682V111.182H126.747V109.182ZM125.682 110.182V109.552H123.682V110.182H125.682ZM136.735 126.562H135.735V127.562H136.735V126.562ZM136.735 120.297V119.297H135.735V120.297H136.735ZM137.155 120.297L138.113 120.011L137.9 119.297H137.155V120.297ZM139.605 124.567L138.983 125.35L139.605 124.567ZM146.15 122.047L145.659 122.918L145.662 122.92L146.15 122.047ZM142.65 120.857L142.394 121.824L142.426 121.832L142.457 121.838L142.65 120.857ZM138.66 119.177L138.113 120.014L138.114 120.015L138.66 119.177ZM138.415 110.847L139.107 111.569L139.115 111.562L138.415 110.847ZM146.43 110.007L146.026 110.922L146.034 110.925L146.042 110.929L146.43 110.007ZM148.635 109.132V108.132H148.032L147.75 108.666L148.635 109.132ZM149.02 109.132H150.02V108.132H149.02V109.132ZM149.02 114.487V115.487H150.02V114.487H149.02ZM148.6 114.487L147.669 114.852L147.918 115.487H148.6V114.487ZM140.62 110.532L141.191 111.353L141.203 111.345L141.215 111.336L140.62 110.532ZM140.06 112.807L139.271 113.421L139.289 113.444L139.308 113.466L140.06 112.807ZM140.445 113.227L141.152 112.52V112.52L140.445 113.227ZM140.9 113.542L140.415 114.416L140.454 114.438L140.494 114.456L140.9 113.542ZM141.425 113.787L140.978 114.682L141.042 114.713L141.109 114.736L141.425 113.787ZM142.055 113.997L141.739 114.946L141.75 114.949L141.761 114.953L142.055 113.997ZM142.72 114.172L142.963 113.202L142.924 113.192L142.885 113.186L142.72 114.172ZM146.15 115.222L145.753 116.14L145.766 116.145L145.779 116.151L146.15 115.222ZM148.145 116.272L148.714 115.449L148.707 115.445L148.7 115.44L148.145 116.272ZM148.32 125.057L148.972 125.815L148.981 125.808L148.32 125.057ZM139.325 125.547L138.771 126.379L138.822 126.414L138.878 126.442L139.325 125.547ZM137.155 126.562V127.562H137.738L138.025 127.056L137.155 126.562ZM137.735 126.562V120.297H135.735V126.562H137.735ZM136.735 121.297H137.155V119.297H136.735V121.297ZM136.197 120.583C136.829 122.699 137.725 124.349 138.983 125.35L140.228 123.784C139.432 123.152 138.695 121.955 138.113 120.011L136.197 120.583ZM138.983 125.35C140.216 126.331 141.73 126.792 143.455 126.792V124.792C142.1 124.792 141.048 124.437 140.228 123.784L138.983 125.35ZM143.455 126.792C144.719 126.792 145.839 126.597 146.67 126.067C147.578 125.488 148.025 124.586 148.025 123.517H146.025C146.025 123.964 145.877 124.2 145.595 124.38C145.237 124.608 144.571 124.792 143.455 124.792V126.792ZM148.025 123.517C148.025 123.037 147.917 122.569 147.666 122.148C147.416 121.728 147.057 121.409 146.639 121.175L145.662 122.92C145.827 123.012 145.906 123.101 145.947 123.171C145.988 123.24 146.025 123.344 146.025 123.517H148.025ZM146.642 121.176C145.61 120.594 144.334 120.169 142.843 119.876L142.457 121.838C143.813 122.105 144.87 122.473 145.659 122.918L146.642 121.176ZM142.906 119.89C141.395 119.49 140.17 118.968 139.207 118.339L138.114 120.015C139.298 120.787 140.732 121.384 142.394 121.824L142.906 119.89ZM139.208 118.34C138.263 117.722 137.735 116.743 137.735 115.187H135.735C135.735 117.272 136.491 118.952 138.113 120.014L139.208 118.34ZM137.735 115.187C137.735 113.588 138.218 112.421 139.107 111.569L137.723 110.125C136.372 111.42 135.735 113.146 135.735 115.187H137.735ZM139.115 111.562C140.013 110.682 141.237 110.202 142.895 110.202V108.202C140.82 108.202 139.058 108.819 137.716 110.133L139.115 111.562ZM142.895 110.202C143.879 110.202 144.92 110.432 146.026 110.922L146.835 109.093C145.514 108.509 144.199 108.202 142.895 108.202V110.202ZM146.042 110.929C146.506 111.124 147 111.287 147.445 111.287V109.287C147.451 109.287 147.404 109.287 147.283 109.253C147.167 109.221 147.014 109.168 146.818 109.085L146.042 110.929ZM147.445 111.287C147.941 111.287 148.394 111.102 148.747 110.749L147.333 109.335C147.338 109.331 147.356 109.314 147.388 109.301C147.42 109.288 147.443 109.287 147.445 109.287V111.287ZM148.747 110.749C149.025 110.471 149.282 110.051 149.52 109.598L147.75 108.666C147.522 109.1 147.382 109.286 147.333 109.335L148.747 110.749ZM148.635 110.132H149.02V108.132H148.635V110.132ZM148.02 109.132V114.487H150.02V109.132H148.02ZM149.02 113.487H148.6V115.487H149.02V113.487ZM149.531 114.122C148.896 112.502 148.053 111.201 146.961 110.302C145.851 109.39 144.539 108.937 143.07 108.937V110.937C144.098 110.937 144.956 111.243 145.69 111.847C146.441 112.465 147.115 113.439 147.669 114.852L149.531 114.122ZM143.07 108.937C141.886 108.937 140.814 109.145 140.026 109.728L141.215 111.336C141.5 111.125 142.062 110.937 143.07 110.937V108.937ZM140.049 109.711C139.282 110.245 138.815 111.013 138.815 111.967H140.815C140.815 111.755 140.886 111.566 141.191 111.353L140.049 109.711ZM138.815 111.967C138.815 112.469 138.933 112.987 139.271 113.421L140.85 112.193C140.861 112.207 140.815 112.165 140.815 111.967H138.815ZM139.308 113.466C139.475 113.657 139.621 113.817 139.738 113.934L141.152 112.52C141.083 112.45 140.972 112.33 140.813 112.149L139.308 113.466ZM139.738 113.934C139.93 114.126 140.178 114.285 140.415 114.416L141.386 112.668C141.302 112.621 141.24 112.583 141.198 112.554C141.154 112.523 141.144 112.511 141.152 112.52L139.738 113.934ZM140.494 114.456C140.696 114.546 140.856 114.621 140.978 114.682L141.873 112.893C141.714 112.814 141.525 112.725 141.306 112.628L140.494 114.456ZM141.109 114.736C141.284 114.794 141.424 114.841 141.739 114.946L142.372 113.048C142.315 113.029 142.223 112.999 142.175 112.983C142.052 112.942 142.118 112.964 142.004 112.926C141.983 112.919 141.986 112.92 141.965 112.913C141.962 112.912 141.96 112.911 141.956 112.91C141.952 112.909 141.951 112.908 141.947 112.907C141.946 112.907 141.946 112.907 141.946 112.906C141.945 112.906 141.945 112.906 141.945 112.906C141.944 112.906 141.943 112.906 141.942 112.905C141.941 112.905 141.939 112.904 141.938 112.904C141.934 112.903 141.932 112.902 141.929 112.901C141.9 112.891 141.886 112.887 141.86 112.878C141.793 112.855 141.8 112.858 141.742 112.838L141.109 114.736ZM141.761 114.953C142.068 115.047 142.345 115.123 142.556 115.158L142.885 113.186C142.816 113.174 142.649 113.134 142.349 113.041L141.761 114.953ZM142.478 115.142C144.057 115.537 145.133 115.871 145.753 116.14L146.548 114.305C145.768 113.966 144.557 113.6 142.963 113.202L142.478 115.142ZM145.779 116.151C146.414 116.405 147.018 116.722 147.591 117.104L148.7 115.44C148.013 114.982 147.286 114.599 146.522 114.294L145.779 116.151ZM147.577 117.095C148.517 117.744 149.07 118.822 149.07 120.577H151.07C151.07 118.365 150.34 116.573 148.714 115.449L147.577 117.095ZM149.07 120.577C149.07 122.33 148.557 123.517 147.66 124.306L148.981 125.808C150.417 124.544 151.07 122.744 151.07 120.577H149.07ZM147.668 124.299C146.734 125.102 145.394 125.562 143.525 125.562V127.562C145.717 127.562 147.573 127.019 148.972 125.815L147.668 124.299ZM143.525 125.562C142.241 125.562 140.994 125.263 139.773 124.653L138.878 126.442C140.364 127.184 141.916 127.562 143.525 127.562V125.562ZM139.88 124.715C139.578 124.513 139.141 124.267 138.66 124.267V126.267C138.607 126.267 138.571 126.26 138.558 126.256C138.545 126.253 138.545 126.252 138.561 126.259C138.596 126.273 138.664 126.308 138.771 126.379L139.88 124.715ZM138.66 124.267C137.55 124.267 136.793 125.175 136.286 126.068L138.025 127.056C138.239 126.679 138.42 126.462 138.551 126.349C138.674 126.243 138.705 126.267 138.66 126.267V124.267ZM137.155 125.562H136.735V127.562H137.155V125.562ZM151.106 99.9621V98.9621H150.106V99.9621H151.106ZM159.541 99.9621H160.541V98.9621H159.541V99.9621ZM159.541 112.772H158.541L160.486 113.101L159.541 112.772ZM161.256 110.182L160.609 109.42V109.42L161.256 110.182ZM170.181 125.582H169.181V126.582H170.181V125.582ZM172.141 125.582H173.141V124.582H172.141V125.582ZM172.141 126.212V127.212H173.141V126.212H172.141ZM162.236 126.212H161.236V127.212H162.236V126.212ZM162.236 125.582V124.582H161.236V125.582H162.236ZM163.671 125.582V126.582H164.671V125.582H163.671ZM163.391 111.512L162.477 111.918L162.482 111.928L162.486 111.938L163.391 111.512ZM160.381 112.352L159.522 111.841L159.517 111.848L159.513 111.856L160.381 112.352ZM159.541 125.582H158.541V126.582H159.541V125.582ZM161.046 125.582H162.046V124.582H161.046V125.582ZM161.046 126.212V127.212H162.046V126.212H161.046ZM151.106 126.212H150.106V127.212H151.106V126.212ZM151.106 125.582V124.582H150.106V125.582H151.106ZM153.031 125.582V126.582H154.031V125.582H153.031ZM153.031 100.592H154.031V99.5921H153.031V100.592ZM151.106 100.592H150.106V101.592H151.106V100.592ZM151.106 100.962H159.541V98.9621H151.106V100.962ZM158.541 99.9621V112.772H160.541V99.9621H158.541ZM160.486 113.101C160.808 112.174 161.286 111.468 161.903 110.945L160.609 109.42C159.687 110.202 159.021 111.223 158.597 112.444L160.486 113.101ZM161.903 110.945C162.416 110.509 163.306 110.202 164.756 110.202V108.202C163.08 108.202 161.636 108.548 160.609 109.42L161.903 110.945ZM164.756 110.202C166.39 110.202 167.438 110.639 168.092 111.344C168.759 112.063 169.181 113.235 169.181 115.047H171.181C171.181 112.962 170.699 111.213 169.558 109.983C168.404 108.74 166.738 108.202 164.756 108.202V110.202ZM169.181 115.047V125.582H171.181V115.047H169.181ZM170.181 126.582H172.141V124.582H170.181V126.582ZM171.141 125.582V126.212H173.141V125.582H171.141ZM172.141 125.212H162.236V127.212H172.141V125.212ZM163.236 126.212V125.582H161.236V126.212H163.236ZM162.236 126.582H163.671V124.582H162.236V126.582ZM164.671 125.582V114.207H162.671V125.582H164.671ZM164.671 114.207C164.671 113.489 164.647 112.877 164.596 112.38C164.547 111.912 164.465 111.446 164.296 111.086L162.486 111.938C162.486 111.938 162.492 111.951 162.502 111.983C162.512 112.014 162.524 112.058 162.536 112.115C162.561 112.231 162.586 112.386 162.606 112.587C162.648 112.988 162.671 113.525 162.671 114.207H164.671ZM164.305 111.106C164.143 110.742 163.889 110.416 163.525 110.19C163.164 109.966 162.765 109.882 162.376 109.882V111.882C162.428 111.882 162.457 111.888 162.469 111.891C162.481 111.894 162.479 111.895 162.47 111.889C162.466 111.887 162.462 111.884 162.459 111.881C162.456 111.878 162.454 111.877 162.454 111.877C162.455 111.877 162.457 111.879 162.461 111.886C162.465 111.892 162.47 111.903 162.477 111.918L164.305 111.106ZM162.376 109.882C161.115 109.882 160.183 110.729 159.522 111.841L161.24 112.864C161.745 112.015 162.144 111.882 162.376 111.882V109.882ZM159.513 111.856C158.848 113.019 158.541 114.389 158.541 115.922H160.541C160.541 114.655 160.794 113.645 161.249 112.848L159.513 111.856ZM158.541 115.922V125.582H160.541V115.922H158.541ZM159.541 126.582H161.046V124.582H159.541V126.582ZM160.046 125.582V126.212H162.046V125.582H160.046ZM161.046 125.212H151.106V127.212H161.046V125.212ZM152.106 126.212V125.582H150.106V126.212H152.106ZM151.106 126.582H153.031V124.582H151.106V126.582ZM154.031 125.582V100.592H152.031V125.582H154.031ZM153.031 99.5921H151.106V101.592H153.031V99.5921ZM152.106 100.592V99.9621H150.106V100.592H152.106ZM170.755 110.182H169.755V111.182H170.755V110.182ZM170.755 109.552V108.552H169.755V109.552H170.755ZM180.905 109.552H181.905V108.552H180.905V109.552ZM180.905 110.182V111.182H181.905V110.182H180.905ZM179.015 110.182V109.182H177.634L178.065 110.494L179.015 110.182ZM182.83 121.802L181.88 122.114L182.801 124.918L183.774 122.132L182.83 121.802ZM186.89 110.182L187.834 110.512L188.299 109.182H186.89V110.182ZM184.545 110.182H183.545V111.182H184.545V110.182ZM184.545 109.552V108.552H183.545V109.552H184.545ZM189.48 109.552H190.48V108.552H189.48V109.552ZM189.48 110.182V111.182H190.48V110.182H189.48ZM187.73 110.182V109.182H187.019L186.786 109.854L187.73 110.182ZM181.185 129.047L182.129 129.378L182.13 129.375L181.185 129.047ZM178.595 133.632L177.925 132.89L177.916 132.899L178.595 133.632ZM171.84 134.017L172.462 133.234L171.84 134.017ZM171.42 129.362L170.713 128.655L171.42 129.362ZM176.145 132.267V133.267H176.9L177.107 132.542L176.145 132.267ZM174.92 132.267V131.267H174.209L173.976 131.939L174.92 132.267ZM174.85 133.597L175.779 133.226L174.85 133.597ZM178.35 132.687L177.569 132.062L177.562 132.072L178.35 132.687ZM180.485 128.382L179.543 128.048L179.541 128.052L180.485 128.382ZM181.255 126.212L182.198 126.547L182.671 125.212H181.255V126.212ZM178.175 126.212L177.238 126.562L177.481 127.212H178.175V126.212ZM172.19 110.182L173.127 109.832L172.884 109.182H172.19V110.182ZM171.755 110.182V109.552H169.755V110.182H171.755ZM170.755 110.552H180.905V108.552H170.755V110.552ZM179.905 109.552V110.182H181.905V109.552H179.905ZM180.905 109.182H179.015V111.182H180.905V109.182ZM178.065 110.494L181.88 122.114L183.78 121.49L179.965 109.87L178.065 110.494ZM183.774 122.132L187.834 110.512L185.946 109.852L181.886 121.472L183.774 122.132ZM186.89 109.182H184.545V111.182H186.89V109.182ZM185.545 110.182V109.552H183.545V110.182H185.545ZM184.545 110.552H189.48V108.552H184.545V110.552ZM188.48 109.552V110.182H190.48V109.552H188.48ZM189.48 109.182H187.73V111.182H189.48V109.182ZM186.786 109.854L180.241 128.719L182.13 129.375L188.675 110.51L186.786 109.854ZM180.242 128.716C179.489 130.86 178.694 132.196 177.925 132.89L179.265 134.374C180.41 133.342 181.341 131.621 182.129 129.378L180.242 128.716ZM177.916 132.899C177.155 133.604 176.235 133.962 175.095 133.962V135.962C176.709 135.962 178.123 135.434 179.275 134.366L177.916 132.899ZM175.095 133.962C173.864 133.962 173.025 133.681 172.462 133.234L171.218 134.8C172.243 135.614 173.573 135.962 175.095 135.962V133.962ZM172.462 133.234C171.898 132.786 171.65 132.265 171.65 131.602H169.65C169.65 132.899 170.196 133.988 171.218 134.8L172.462 133.234ZM171.65 131.602C171.65 130.792 171.86 130.337 172.127 130.069L170.713 128.655C169.954 129.414 169.65 130.452 169.65 131.602H171.65ZM172.127 130.069C172.424 129.773 172.83 129.592 173.45 129.592V127.592C172.39 127.592 171.444 127.924 170.713 128.655L172.127 130.069ZM173.45 129.592C174.305 129.592 174.76 129.774 174.99 129.965C175.185 130.127 175.355 130.41 175.355 131.007H177.355C177.355 129.994 177.042 129.07 176.268 128.427C175.53 127.813 174.532 127.592 173.45 127.592V129.592ZM175.355 131.007C175.355 131.232 175.309 131.555 175.184 131.992L177.107 132.542C177.262 131.999 177.355 131.482 177.355 131.007H175.355ZM176.145 131.267H174.92V133.267H176.145V131.267ZM173.976 131.939C173.749 132.591 173.657 133.305 173.922 133.968L175.779 133.226C175.764 133.189 175.719 133.016 175.865 132.596L173.976 131.939ZM173.922 133.968C174.073 134.346 174.338 134.66 174.706 134.865C175.056 135.059 175.439 135.122 175.795 135.122V133.122C175.731 133.122 175.692 133.116 175.673 133.112C175.655 133.108 175.659 133.107 175.677 133.117C175.697 133.128 175.721 133.146 175.744 133.172C175.766 133.197 175.776 133.219 175.779 133.226L173.922 133.968ZM175.795 135.122C177.14 135.122 178.258 134.43 179.139 133.302L177.562 132.072C176.949 132.857 176.363 133.122 175.795 133.122V135.122ZM179.131 133.312C179.982 132.249 180.738 130.69 181.429 128.712L179.541 128.052C178.879 129.947 178.212 131.259 177.569 132.062L179.131 133.312ZM181.428 128.717L182.198 126.547L180.313 125.878L179.543 128.048L181.428 128.717ZM181.255 125.212H178.175V127.212H181.255V125.212ZM179.112 125.862L173.127 109.832L171.253 110.532L177.238 126.562L179.112 125.862ZM172.19 109.182H170.755V111.182H172.19V109.182ZM189.628 109.552V108.552H188.628V109.552H189.628ZM198.063 109.552H199.063V108.552H198.063V109.552ZM198.063 112.772H197.063L199.008 113.101L198.063 112.772ZM199.778 110.182L199.131 109.42V109.42L199.778 110.182ZM208.703 125.582H207.703V126.582H208.703V125.582ZM210.663 125.582H211.663V124.582H210.663V125.582ZM210.663 126.212V127.212H211.663V126.212H210.663ZM200.758 126.212H199.758V127.212H200.758V126.212ZM200.758 125.582V124.582H199.758V125.582H200.758ZM202.193 125.582V126.582H203.193V125.582H202.193ZM201.913 111.512L200.999 111.918L201.004 111.928L201.008 111.938L201.913 111.512ZM198.903 112.352L198.044 111.841L198.039 111.848L198.035 111.856L198.903 112.352ZM198.063 125.582H197.063V126.582H198.063V125.582ZM199.568 125.582H200.568V124.582H199.568V125.582ZM199.568 126.212V127.212H200.568V126.212H199.568ZM189.628 126.212H188.628V127.212H189.628V126.212ZM189.628 125.582V124.582H188.628V125.582H189.628ZM191.553 125.582V126.582H192.553V125.582H191.553ZM191.553 110.182H192.553V109.182H191.553V110.182ZM189.628 110.182H188.628V111.182H189.628V110.182ZM189.628 110.552H198.063V108.552H189.628V110.552ZM197.063 109.552V112.772H199.063V109.552H197.063ZM199.008 113.101C199.33 112.174 199.808 111.468 200.425 110.945L199.131 109.42C198.209 110.202 197.543 111.223 197.119 112.444L199.008 113.101ZM200.425 110.945C200.938 110.509 201.828 110.202 203.278 110.202V108.202C201.602 108.202 200.158 108.548 199.131 109.42L200.425 110.945ZM203.278 110.202C204.913 110.202 205.96 110.639 206.614 111.344C207.281 112.063 207.703 113.235 207.703 115.047H209.703C209.703 112.962 209.221 111.213 208.08 109.983C206.926 108.74 205.261 108.202 203.278 108.202V110.202ZM207.703 115.047V125.582H209.703V115.047H207.703ZM208.703 126.582H210.663V124.582H208.703V126.582ZM209.663 125.582V126.212H211.663V125.582H209.663ZM210.663 125.212H200.758V127.212H210.663V125.212ZM201.758 126.212V125.582H199.758V126.212H201.758ZM200.758 126.582H202.193V124.582H200.758V126.582ZM203.193 125.582V114.207H201.193V125.582H203.193ZM203.193 114.207C203.193 113.489 203.17 112.877 203.118 112.38C203.069 111.912 202.987 111.446 202.818 111.086L201.008 111.938C201.008 111.938 201.015 111.951 201.024 111.983C201.034 112.014 201.046 112.058 201.058 112.115C201.083 112.231 201.108 112.386 201.129 112.587C201.17 112.988 201.193 113.525 201.193 114.207H203.193ZM202.827 111.106C202.665 110.742 202.412 110.416 202.047 110.19C201.686 109.966 201.287 109.882 200.898 109.882V111.882C200.95 111.882 200.979 111.888 200.992 111.891C201.003 111.894 201.001 111.895 200.992 111.889C200.988 111.887 200.984 111.884 200.981 111.881C200.978 111.878 200.977 111.877 200.977 111.877C200.977 111.877 200.979 111.879 200.983 111.886C200.987 111.892 200.993 111.903 200.999 111.918L202.827 111.106ZM200.898 109.882C199.637 109.882 198.706 110.729 198.044 111.841L199.763 112.864C200.268 112.015 200.666 111.882 200.898 111.882V109.882ZM198.035 111.856C197.37 113.019 197.063 114.389 197.063 115.922H199.063C199.063 114.655 199.316 113.645 199.771 112.848L198.035 111.856ZM197.063 115.922V125.582H199.063V115.922H197.063ZM198.063 126.582H199.568V124.582H198.063V126.582ZM198.568 125.582V126.212H200.568V125.582H198.568ZM199.568 125.212H189.628V127.212H199.568V125.212ZM190.628 126.212V125.582H188.628V126.212H190.628ZM189.628 126.582H191.553V124.582H189.628V126.582ZM192.553 125.582V110.182H190.553V125.582H192.553ZM191.553 109.182H189.628V111.182H191.553V109.182ZM190.628 110.182V109.552H188.628V110.182H190.628ZM220.541 117.987V118.987H221.541V117.987H220.541ZM220.156 110.847L219.199 111.137L219.204 111.155L219.21 111.172L220.156 110.847ZM217.601 110.042L218.141 110.883L218.148 110.879L218.155 110.874L217.601 110.042ZM217.321 112.107L216.378 112.44L216.613 113.107H217.321V112.107ZM218.196 112.107L219.13 111.751L218.885 111.107H218.196V112.107ZM217.601 115.677L218.244 116.443L218.253 116.435L218.261 116.428L217.601 115.677ZM225.441 110.637L224.767 111.376L224.776 111.384L224.784 111.392L225.441 110.637ZM229.466 121.137L229.532 120.139L228.526 120.072L228.467 121.079L229.466 121.137ZM229.991 121.172L230.99 121.218L231.034 120.239L230.057 120.174L229.991 121.172ZM228.836 125.407L229.587 126.067L228.836 125.407ZM220.681 123.972L221.652 123.736L220.843 120.408L219.734 123.648L220.681 123.972ZM219.316 125.932L219.885 126.754L219.316 125.932ZM213.436 118.932L213.857 119.839L213.864 119.836L213.436 118.932ZM218.301 124.637L217.352 124.953L217.361 124.981L217.372 125.008L218.301 124.637ZM220.051 124.287L219.17 123.813L219.167 123.819L219.163 123.826L220.051 124.287ZM220.541 118.547H221.541V117.547H220.541V118.547ZM219.526 118.987H220.541V116.987H219.526V118.987ZM221.541 117.987V115.292H219.541V117.987H221.541ZM221.541 115.292C221.541 113.097 221.42 111.45 221.101 110.522L219.21 111.172C219.404 111.737 219.541 113.054 219.541 115.292H221.541ZM221.113 110.557C220.957 110.045 220.695 109.563 220.267 109.209C219.827 108.846 219.299 108.692 218.756 108.692V110.692C218.912 110.692 218.968 110.73 218.994 110.752C219.033 110.784 219.121 110.88 219.199 111.137L221.113 110.557ZM218.756 108.692C218.138 108.692 217.56 108.867 217.046 109.21L218.155 110.874C218.341 110.75 218.533 110.692 218.756 110.692V108.692ZM217.06 109.201C216.44 109.6 216.111 110.224 216.111 110.952H218.111C218.111 110.922 218.114 110.905 218.115 110.899C218.116 110.894 218.116 110.896 218.114 110.901C218.111 110.907 218.108 110.909 218.11 110.908C218.111 110.906 218.12 110.897 218.141 110.883L217.06 109.201ZM216.111 110.952C216.111 111.452 216.205 111.95 216.378 112.44L218.264 111.774C218.157 111.471 218.111 111.199 218.111 110.952H216.111ZM217.321 113.107H218.196V111.107H217.321V113.107ZM217.261 112.463C217.393 112.808 217.476 113.275 217.476 113.892H219.476C219.476 113.109 219.372 112.386 219.13 111.751L217.261 112.463ZM217.476 113.892C217.476 114.237 217.343 114.572 216.94 114.926L218.261 116.428C219.025 115.756 219.476 114.9 219.476 113.892H217.476ZM216.957 114.911C216.583 115.226 216.088 115.412 215.396 115.412V117.412C216.477 117.412 217.452 117.108 218.244 116.443L216.957 114.911ZM215.396 115.412C214.538 115.412 214.08 115.205 213.833 114.966C213.592 114.734 213.386 114.312 213.386 113.507H211.386C211.386 114.639 211.681 115.669 212.444 116.405C213.2 117.135 214.247 117.412 215.396 117.412V115.412ZM213.386 113.507C213.386 112.42 213.813 111.675 214.722 111.14C215.712 110.557 217.328 110.202 219.701 110.202V108.202C217.197 108.202 215.155 108.565 213.707 109.417C212.177 110.317 211.386 111.724 211.386 113.507H213.386ZM219.701 110.202C222.434 110.202 224.011 110.688 224.767 111.376L226.114 109.898C224.77 108.673 222.52 108.202 219.701 108.202V110.202ZM224.784 111.392C225.52 112.031 226.051 113.377 226.051 115.817H228.051C228.051 113.218 227.508 111.11 226.097 109.882L224.784 111.392ZM226.051 115.817V122.922H228.051V115.817H226.051ZM226.051 122.922C226.051 123.589 226.138 124.249 226.431 124.774C226.586 125.052 226.807 125.306 227.109 125.487C227.412 125.668 227.742 125.742 228.066 125.742V123.742C228.051 123.742 228.085 123.74 228.135 123.77C228.183 123.799 228.192 123.825 228.178 123.8C228.133 123.719 228.051 123.469 228.051 122.922H226.051ZM228.066 125.742C229.104 125.742 229.665 124.917 229.943 124.203C230.234 123.454 230.392 122.427 230.464 121.195L228.467 121.079C228.399 122.25 228.254 123.026 228.078 123.479C227.889 123.966 227.821 123.742 228.066 123.742V125.742ZM229.399 122.135L229.924 122.17L230.057 120.174L229.532 120.139L229.399 122.135ZM228.992 121.127C228.9 123.145 228.52 124.251 228.084 124.747L229.587 126.067C230.504 125.023 230.895 123.306 230.99 121.218L228.992 121.127ZM228.084 124.747C227.676 125.211 226.909 125.562 225.511 125.562V127.562C227.193 127.562 228.642 127.143 229.587 126.067L228.084 124.747ZM225.511 125.562C224.195 125.562 223.278 125.356 222.676 125.033C222.113 124.732 221.793 124.314 221.652 123.736L219.709 124.208C219.988 125.357 220.683 126.234 221.731 126.796C222.738 127.336 224.026 127.562 225.511 127.562V125.562ZM219.734 123.648C219.481 124.388 219.135 124.841 218.746 125.11L219.885 126.754C220.71 126.183 221.273 125.33 221.627 124.296L219.734 123.648ZM218.746 125.11C218.379 125.365 217.728 125.562 216.656 125.562V127.562C217.917 127.562 219.039 127.34 219.885 126.754L218.746 125.11ZM216.656 125.562C215.04 125.562 214.013 125.228 213.404 124.729C212.832 124.262 212.476 123.525 212.476 122.327H210.476C210.476 123.952 210.982 125.333 212.138 126.278C213.255 127.191 214.818 127.562 216.656 127.562V125.562ZM212.476 122.327C212.476 121.628 212.613 121.114 212.832 120.736C213.045 120.366 213.37 120.065 213.857 119.839L213.015 118.025C212.195 118.406 211.54 118.974 211.1 119.736C210.665 120.489 210.476 121.369 210.476 122.327H212.476ZM213.864 119.836C214.989 119.303 216.838 118.987 219.526 118.987V116.987C216.753 116.987 214.542 117.302 213.008 118.028L213.864 119.836ZM217.126 122.292C217.126 122.912 217.14 123.438 217.172 123.863C217.202 124.265 217.252 124.653 217.352 124.953L219.249 124.321C219.233 124.271 219.195 124.093 219.167 123.714C219.14 123.357 219.126 122.886 219.126 122.292H217.126ZM217.372 125.008C217.495 125.316 217.695 125.621 218.008 125.845C218.327 126.072 218.687 126.162 219.036 126.162V124.162C219.032 124.162 219.047 124.162 219.075 124.17C219.104 124.179 219.138 124.194 219.171 124.217C219.239 124.266 219.246 124.308 219.229 124.266L217.372 125.008ZM219.036 126.162C220.004 126.162 220.597 125.403 220.938 124.748L219.163 123.826C219.045 124.053 218.955 124.152 218.916 124.186C218.901 124.2 218.904 124.192 218.93 124.182C218.958 124.171 218.995 124.162 219.036 124.162V126.162ZM220.931 124.761C221.367 123.952 221.541 122.938 221.541 121.802H219.541C219.541 122.766 219.388 123.409 219.17 123.813L220.931 124.761ZM221.541 121.802V118.547H219.541V121.802H221.541ZM220.541 117.547H220.296V119.547H220.541V117.547ZM220.296 117.547C219.29 117.547 218.415 117.938 217.842 118.78C217.315 119.554 217.126 120.588 217.126 121.732H219.126C219.126 120.753 219.298 120.195 219.495 119.906C219.644 119.687 219.854 119.547 220.296 119.547V117.547ZM217.126 121.732V122.292H219.126V121.732H217.126Z" fill="#0E4B69"/>
<g filter="url(#filter0_dd)">
<circle cx="25.2122" cy="146.212" r="8" fill="#FFB703"/>
<circle cx="25.2122" cy="146.212" r="7.5" stroke="white"/>
</g>
<g filter="url(#filter1_d)">
<path d="M42.2122 145.712H225.212" stroke="#FB8500"/>
</g>
<path d="M24.7122 132.212L24.7122 31.2121" stroke="#FB8500"/>
<g clip-path="url(#clip0)">
<g filter="url(#filter2_d)">
<path fill-rule="evenodd" clip-rule="evenodd" d="M30.4585 28.0018L24.7741 16.085L18.6233 27.8843L24.5759 26.1643L30.4585 28.0018Z" fill="#FB8500"/>
<path d="M30.3095 28.4791L31.4031 28.8207L30.9098 27.7866L25.2253 15.8697L24.7939 14.9653L24.3307 15.8539L18.1799 27.6531L17.64 28.6888L18.762 28.3646L24.5703 26.6864L30.3095 28.4791Z" stroke="white" stroke-miterlimit="16"/>
</g>
</g>
<g clip-path="url(#clip1)">
<g filter="url(#filter3_d)">
<path fill-rule="evenodd" clip-rule="evenodd" d="M229.212 151.631L241.255 146.219L229.598 139.801L231.182 145.792L229.212 151.631Z" fill="#FB8500"/>
<path d="M228.738 151.471L228.372 152.557L229.417 152.087L241.46 146.675L242.374 146.264L241.496 145.781L229.839 139.363L228.816 138.8L229.115 139.929L230.661 145.774L228.738 151.471Z" stroke="white" stroke-miterlimit="16"/>
</g>
</g>
<defs>
<filter id="filter0_dd" x="0.212158" y="121.212" width="50" height="50" filterUnits="userSpaceOnUse" color-interpolation-filters="sRGB">
<feFlood flood-opacity="0" result="BackgroundImageFix"/>
<feColorMatrix in="SourceAlpha" type="matrix" values="0 0 0 0 0 0 0 0 0 0 0 0 0 0 0 0 0 0 127 0"/>
<feOffset dx="2" dy="2"/>
<feGaussianBlur stdDeviation="7.5"/>
<feColorMatrix type="matrix" values="0 0 0 0 0 0 0 0 0 0 0 0 0 0 0 0 0 0 1 0"/>
<feBlend mode="normal" in2="BackgroundImageFix" result="effect1_dropShadow"/>
<feColorMatrix in="SourceAlpha" type="matrix" values="0 0 0 0 0 0 0 0 0 0 0 0 0 0 0 0 0 0 127 0"/>
<feOffset dx="-2" dy="-2"/>
<feGaussianBlur stdDeviation="7.5"/>
<feColorMatrix type="matrix" values="0 0 0 0 0.386181 0 0 0 0 0.500949 0 0 0 0 0.558333 0 0 0 1 0"/>
<feBlend mode="normal" in2="effect1_dropShadow" result="effect2_dropShadow"/>
<feBlend mode="normal" in="SourceGraphic" in2="effect2_dropShadow" result="shape"/>
</filter>
<filter id="filter1_d" x="38.2122" y="145.212" width="191" height="9" filterUnits="userSpaceOnUse" color-interpolation-filters="sRGB">
<feFlood flood-opacity="0" result="BackgroundImageFix"/>
<feColorMatrix in="SourceAlpha" type="matrix" values="0 0 0 0 0 0 0 0 0 0 0 0 0 0 0 0 0 0 127 0"/>
<feOffset dy="4"/>
<feGaussianBlur stdDeviation="2"/>
<feColorMatrix type="matrix" values="0 0 0 0 0 0 0 0 0 0 0 0 0 0 0 0 0 0 0.25 0"/>
<feBlend mode="normal" in2="BackgroundImageFix" result="effect1_dropShadow"/>
<feBlend mode="normal" in="SourceGraphic" in2="effect1_dropShadow" result="shape"/>
</filter>
<filter id="filter2_d" x="13.6567" y="11.8455" width="20.7044" height="21.6478" filterUnits="userSpaceOnUse" color-interpolation-filters="sRGB">
<feFlood flood-opacity="0" result="BackgroundImageFix"/>
<feColorMatrix in="SourceAlpha" type="matrix" values="0 0 0 0 0 0 0 0 0 0 0 0 0 0 0 0 0 0 127 0"/>
<feOffset dy="1"/>
<feGaussianBlur stdDeviation="1.5"/>
<feColorMatrix type="matrix" values="0 0 0 0 0 0 0 0 0 0 0 0 0 0 0 0 0 0 0.25 0"/>
<feBlend mode="normal" in2="BackgroundImageFix" result="effect1_dropShadow"/>
<feBlend mode="normal" in="SourceGraphic" in2="effect1_dropShadow" result="shape"/>
</filter>
<filter id="filter3_d" x="225.034" y="135.799" width="21.4586" height="20.7442" filterUnits="userSpaceOnUse" color-interpolation-filters="sRGB">
<feFlood flood-opacity="0" result="BackgroundImageFix"/>
<feColorMatrix in="SourceAlpha" type="matrix" values="0 0 0 0 0 0 0 0 0 0 0 0 0 0 0 0 0 0 127 0"/>
<feOffset dy="1"/>
<feGaussianBlur stdDeviation="1.5"/>
<feColorMatrix type="matrix" values="0 0 0 0 0 0 0 0 0 0 0 0 0 0 0 0 0 0 0.25 0"/>
<feBlend mode="normal" in2="BackgroundImageFix" result="effect1_dropShadow"/>
<feBlend mode="normal" in="SourceGraphic" in2="effect1_dropShadow" result="shape"/>
</filter>
<clipPath id="clip0">
<rect width="32" height="32" fill="white" transform="translate(23.5042) rotate(39.8481)"/>
</clipPath>
<clipPath id="clip1">
<rect width="32" height="32" fill="white" transform="translate(255.365 145.269) rotate(131.149)"/>
</clipPath>
</defs>
</svg>
